<svg id="bc16ba16-17ab-4e8d-b75d-cbda602bbe0f" data-name="a0e2790c-be07-454f-a984-043252fc66e7" xmlns="http://www.w3.org/2000/svg" viewBox="0 0 768 448"><defs><style>.a5d8b5d2-9315-451c-b01b-652d8184e4bc{fill:#006dd2;}.bdfea0be-4a2a-4cd4-9973-3fcefba83378{fill:#fff;}</style></defs><path class="a5d8b5d2-9315-451c-b01b-652d8184e4bc" d="M704,0H64C28.7,0,0,21.5,0,48V400c0,26.5,28.7,48,64,48H704c35.3,0,64-21.5,64-48V48C768,21.5,739.3,0,704,0Z"/><path class="bdfea0be-4a2a-4cd4-9973-3fcefba83378" d="M427.8,136.6c0-19.4-16.6-21.7-32.3-21.7l-46.1-.4v81.8h19.4V166.7H390c21.7,0,17.1,12.2,17.5,29.6H427V180.4c0-10.9-1.8-17.8-13-21.7,8.7-3.6,13.9-12.7,13.8-22.1Zm-34.7,13.3H368.7v-18h24.8c6,0,12.6,1.2,12.6,8.7,0,7.8-6.2,9.3-13,9.3ZM373.4,255.5H311.2l-24.8,26.9-24.2-26.9H183.7l-.1,81.8h77.2l25.1-27.1L310,337.3h38l.1-27.5c22.3,0,58.2,5.4,58.2-27.5.1-20.4-14.5-26.8-32.9-26.8ZM251,320H203.1V303.8h42.8V287.2H203V272.4h49.2l21.1,23.8Zm77.6,9.7-29.9-33.2,29.9-32.3Zm44.6-36.6h-25V272.4h25.4c6.6,0,12,2.7,12,9.9,0,7.5-5.4,10.8-12.4,10.8ZM335.9,131.8V114.6H270.4v81.8h65.5V179.5H290V163.2h44.6V146.6H290V131.9h45.9Zm388,108.1ZM494.3,277.6c0-19.4-16.6-22.1-32-22.1H415.8l-.1,81.8h19.6l.1-29.9h20.8c13,0,17.5,2.4,17.5,16.3l-.1,13.6h19.6l.1-16.3c0-10.5-2.1-17.8-13-21.7C489.3,295.6,494.1,286.5,494.3,277.6Zm-34.5,13.2H435.4V272.4h24.8c6,0,12.6,1.2,12.6,8.7C472.8,289.2,466.4,290.8,459.8,290.8ZM255.9,196.4V114.6H223.3l-23.2,55.5-25.6-55.5h-32v77.5l-33.2-77.5H80.5l-35,81.8H66.6l7.6-18.1h40.7l7.6,18.1h39.9v-64l28.3,64h17.2l28.3-64v64Zm-174.8-35,13.2-32.6,13.6,32.6ZM724,341.7c-15,9.8-38.6,7.2-79.7,7.2v-5.3c-12.7,6.6-4.6,5.3-184.9,5.3,0-29.7.1-28.2,0-29.7-2-.1-3.8-.1-11.1-.1,0,21.1-.1,8-.1,29.9H401.4c0-14.3.1-18.1.1-34.5-11.8,7.1-26.9,7.5-40.5,7.3,0,17.3-.1,9.8-.1,27.1H303.2c-6-6.7-3.2-3.7-18.2-20.5-3.8,4.1-15.1,16.4-19,20.5H169.3v-109h98c5.9,6.6,3.3,3.7,18.3,20.3,3.8-4.1,14.4-15.8,18.5-20.3h68.4c11.6,0,21.2,2.2,28.7,6.6v-6.6c64.1,0,75.9-1.6,89.3,6v-6H583V246c13.5-8.1,23.1-6.1,76.6-6.1v5.9c12.2-7,19.6-6.1,64.1-5.9l.3,101.8ZM44.2,207.9,44,162.5c5.4-12.7,10.9-25.3,16.3-38,4.9-11.5,9-20.9,11-25.6h46.8c5.1,11.9,1.9,4.4,10.6,24.9V98.9H183c3.4,7.3,13.1,28.3,16.4,35.4,6.8-16,11.9-28.2,14.9-35.4H335.8c0-.1,13.6,0,13.7,0,51.6.2,63.2-.9,76,6.3V98.9h47.1v11c9-7.2,21.1-11,36.2-11h32.6c0,.6,2.2.4,2.7.4h38.2c5,11.6,3.1,7.1,10.4,24.3V99.3h51.1c5.8,9.4-1.2-2.1,13.2,21.7V99.3h47.1V207.9H655c-6.4-10.6-1.7-2.6-15.6-25.8v25.8H577.1c-7.5-17.5-.1-.4-7.8-18H546.9c-5,11.8-2.6,6.1-7.5,18H507.8c-14.5,0-26.3-3.5-35-10.5v10.5H394.3c-.4-16.4-.1-29.3-.1-29.3-2.1-.4-4-.2-11.6-.2V208h-160V194.6c-2.9,6.6-3.2,7-6,13.4H181.8l-6-13.4V208H113.4l-7.6-18.1H83.2c-5,11.8-2.6,6.1-7.6,18.1H44.2Zm643,64.8h35.5V255.5H683.9c-15.1,0-28.1,7.8-28.1,24.4,0,38.9,50.4,15.1,50.4,32.3,0,6-5.1,7.5-9.9,7.5H658.5l-.1,17.5h37.8c9.9,0,20.8-2.1,26.5-10.5V296.3c-12.4-16.3-46.4-1.5-46.4-15.9,0-6.9,5.5-7.7,10.9-7.7Zm-67.2,47H582l-.1,17.5h38c17.5,0,30.9-6.6,30.9-26,0-39.2-50.6-13.2-50.6-31,0-6.6,5.8-7.5,10.8-7.5h35.9V255.4H607.7c-15.1,0-27.7,7.8-27.7,24.4,0,38.9,50.4,14.8,50.4,32.3-.2,6.4-5.6,7.6-10.4,7.6Zm-49.8-47.3V255.5H505l-.1,81.8H570l.1-16.9-45.5-.4V303.8h44.7V287.2H524.7V272.4ZM503.7,144.8c-.4.2-1.7,2.6-1.7,9,0,7.1,1.1,9.1,1.3,9.3a9.08,9.08,0,0,0,4,.6l8.7-20c-1.3,0-2.5-.1-3.7-.1C505.7,143.6,504.1,144.5,503.7,144.8Zm24.1-12.4Zm-19.1-17.9c-27.7,0-40.1,14.2-40.1,41.6,0,26.2,12,40.1,38.9,40.1h22.7l7.5-18h40.5l7.8,18h39.8V135l36.8,61.2h27.8V114.8H670.5v56.8l-34.3-56.8H606.4V192l-32.9-77.2H544.2l-27.7,64.3h-8.7c-15.7,0-19-9.6-19-23.5,0-28.1,18.5-23.6,39.1-23.2V114.5Zm49.6,14.3,13.2,32.6H544.6ZM439,114.6v81.8h20V114.6Z"/></svg>