<svg id="f1e5b981-b0fe-409d-96c0-ffe4cc514325" data-name="e0c0fb18-82e6-4b46-ab19-673e5860cd35" xmlns="http://www.w3.org/2000/svg" viewBox="0 0 512 512"><path d="M505.75,172.15l-30.69-58.22-44.83-85A54.13,54.13,0,0,0,382.34,0H129.66A54.13,54.13,0,0,0,81.77,28.89l-44.83,85L6.25,172.15A54,54,0,0,0,0,197.39V445.5A66.5,66.5,0,0,0,66.5,512h379A66.5,66.5,0,0,0,512,445.5V197.39A54,54,0,0,0,505.75,172.15ZM401.92,43.81l44.83,85.05,17.68,33.52,10,19H272V32H382.34A22.08,22.08,0,0,1,401.92,43.81ZM65.25,128.86l44.83-85.05A22.08,22.08,0,0,1,129.66,32H240V181.39H37.55l10-19ZM445.5,480H66.5A34.54,34.54,0,0,1,32,445.5V213.39H480V445.5A34.54,34.54,0,0,1,445.5,480Z" transform="translate(0 0)"/></svg>