<?xml version="1.0" encoding="utf-8"?>
<!-- Generator: Adobe Illustrator 25.4.1, SVG Export Plug-In . SVG Version: 6.00 Build 0)  -->
<svg version="1.1" id="Capa_1" xmlns="http://www.w3.org/2000/svg" xmlns:xlink="http://www.w3.org/1999/xlink" x="0px" y="0px"
	 viewBox="0 0 512 512" style="enable-background:new 0 0 512 512;" xml:space="preserve">
<path d="M317.4,64c6.9,0,13,4.4,15.1,10.9l0,0l0,0l10.4,31.2l7.3,21.9h23.1H448c17.6,0,32,14.4,32,32v256c0,17.6-14.4,32-32,32H64
	c-17.6,0-32-14.4-32-32V160c0-17.6,14.4-32,32-32h74.7h23.1l7.3-21.9l10.4-31.2l0,0l0,0c2.2-6.5,8.2-10.9,15.1-10.9H317.4 M256,416
	c70.6,0,128-57.4,128-128s-57.4-128-128-128c-71.8,0-128,56.2-128,128C128,358.6,185.4,416,256,416 M317.4,32H194.6
	c-20.7,0-39,13.2-45.5,32.8L138.7,96H64c-35.3,0-64,28.7-64,64v256c0,35.3,28.6,64,64,64h384c35.3,0,64-28.7,64-64V160
	c0-35.3-28.7-64-64-64h-74.7l-10.4-31.2C356.4,45.2,338.1,32,317.4,32L317.4,32z M256,384c-53.9,0-96-43-96-96c0-53.9,42.1-96,96-96
	c53,0,96,42.1,96,96C352,341,309,384,256,384L256,384z"/>
</svg>
