<svg id="fbe3153c-7b39-450e-bf19-4759c1048e0b" data-name="Capa 1" xmlns="http://www.w3.org/2000/svg" viewBox="0 0 512 512"><defs><style>.edaee9ac-cead-46d9-8bc3-bff7284b9592{fill:#010101;}</style></defs><path class="edaee9ac-cead-46d9-8bc3-bff7284b9592" d="M496,131.53a12,12,0,0,0-12,12V482.29H268V470.37a247.89,247.89,0,0,1,183.38,2.93A12,12,0,0,0,468,462.22V97.47a12,12,0,0,0-7.38-11.08A272.75,272.75,0,0,0,428,75.19V17.71A12,12,0,0,0,410.7,6.94l-156.31,77a272,272,0,0,0-203,2.5A12,12,0,0,0,44,97.47V462.22A12,12,0,0,0,60.62,473.3,247.89,247.89,0,0,1,244,470.37v11.92H28V143.53a12,12,0,0,0-24,0V494.29a12,12,0,0,0,12,12H496a12,12,0,0,0,12-12V143.53A12,12,0,0,0,496,131.53Zm-92-47v257L268,408.46V103.94L404,37ZM68,444.84V105.61a248,248,0,0,1,176,0V427.74a12,12,0,0,0,5.66,10.19,11,11,0,0,0,1.26.68l.15.07a11.9,11.9,0,0,0,1.25.48l.21.07c.42.12.85.23,1.27.31l.22,0a9.73,9.73,0,0,0,1.31.15H256l.52,0,.59,0c.3,0,.58-.07.87-.12l.56-.1c.32-.06.63-.16.94-.25.15,0,.31-.08.46-.14a11.44,11.44,0,0,0,1.36-.56l160-78.77A12,12,0,0,0,428,349V100.16q8.1,2.46,16,5.45V444.84a272.07,272.07,0,0,0-188,4.43,272.07,272.07,0,0,0-188-4.43Z"/><path class="edaee9ac-cead-46d9-8bc3-bff7284b9592" d="M212.66,163.27a259.61,259.61,0,0,0-58.79-6.05,258.66,258.66,0,0,0-54.53,6.05A12,12,0,0,0,102,187a12.28,12.28,0,0,0,2.67-.3,232.9,232.9,0,0,1,49.39-5.45,235.15,235.15,0,0,1,53.29,5.45,12,12,0,1,0,5.32-23.4Z"/><path class="edaee9ac-cead-46d9-8bc3-bff7284b9592" d="M212.66,213.27a259.61,259.61,0,0,0-58.79-6.05,258.66,258.66,0,0,0-54.53,6.05A12,12,0,0,0,102,237a12.28,12.28,0,0,0,2.67-.3,232.9,232.9,0,0,1,49.39-5.45,235.74,235.74,0,0,1,53.29,5.45,12,12,0,1,0,5.32-23.4Z"/><path class="edaee9ac-cead-46d9-8bc3-bff7284b9592" d="M212.66,263.27a259,259,0,0,0-58.79-6,258.51,258.51,0,0,0-54.53,6,12,12,0,1,0,5.32,23.4,232.81,232.81,0,0,1,49.39-5.45,235.29,235.29,0,0,1,53.29,5.45,11.69,11.69,0,0,0,2.67.3,12,12,0,0,0,2.65-23.7Z"/><path class="edaee9ac-cead-46d9-8bc3-bff7284b9592" d="M212.66,313.27a259.61,259.61,0,0,0-58.79-6,258.51,258.51,0,0,0-54.53,6,12,12,0,0,0,5.32,23.4,232.81,232.81,0,0,1,49.39-5.45,235.29,235.29,0,0,1,53.29,5.45,11.69,11.69,0,0,0,2.67.3,12,12,0,0,0,2.65-23.7Z"/><path class="edaee9ac-cead-46d9-8bc3-bff7284b9592" d="M212.66,363.27a259.61,259.61,0,0,0-58.79-6,258.51,258.51,0,0,0-54.53,6,12,12,0,0,0,5.32,23.4,232.81,232.81,0,0,1,49.39-5.45,235.29,235.29,0,0,1,53.29,5.45,11.69,11.69,0,0,0,2.67.3,12,12,0,0,0,2.65-23.7Z"/><path class="edaee9ac-cead-46d9-8bc3-bff7284b9592" d="M299.68,351a11.91,11.91,0,0,0,5.29-1.23L377.63,314A12,12,0,0,0,367,292.45l-72.66,35.76A12,12,0,0,0,299.68,351Z"/><path class="edaee9ac-cead-46d9-8bc3-bff7284b9592" d="M299.68,301a11.91,11.91,0,0,0,5.29-1.23L377.63,264A12,12,0,0,0,367,242.44l-72.66,35.77A12,12,0,0,0,299.68,301Z"/><path class="edaee9ac-cead-46d9-8bc3-bff7284b9592" d="M299.68,251a12,12,0,0,0,5.29-1.23L377.63,214A12,12,0,0,0,367,192.44l-72.66,35.77A12,12,0,0,0,299.68,251Z"/><path class="edaee9ac-cead-46d9-8bc3-bff7284b9592" d="M299.68,201a12,12,0,0,0,5.29-1.23L377.63,164A12,12,0,0,0,367,142.44l-72.66,35.77A12,12,0,0,0,299.68,201Z"/><path class="edaee9ac-cead-46d9-8bc3-bff7284b9592" d="M299.68,151a12,12,0,0,0,5.29-1.23L377.63,114A12,12,0,0,0,367,92.44l-72.66,35.77A12,12,0,0,0,299.68,151Z"/></svg>