<svg id="bb6c8613-37b2-4f59-bb45-1a27e40c72d2" data-name="a71a13bb-8b45-40cf-b521-f3c170e24cf0" xmlns="http://www.w3.org/2000/svg" viewBox="0 0 631 512"><defs><style>.b7d160a1-2ba9-4a4b-a682-8528f2b9fd76{fill:none;stroke:#000;stroke-miterlimit:10;}</style></defs><path class="b7d160a1-2ba9-4a4b-a682-8528f2b9fd76" d="M168.48,119.64" transform="translate(59.5)"/><path d="M540.12,383.91l-245.47-163-.09-.06-8.89-5.91,26-17.24h0l6.48-4.3.57-.4a106.68,106.68,0,1,0-169.36-86.32,110.21,110.21,0,0,0,.58,11.09,16.41,16.41,0,0,0,32.65-3.38,75.67,75.67,0,0,1-.41-7.71,73.86,73.86,0,1,1,117.5,59.58l-6.16,4.09h0l-46.55,30.91-29.53,19.61,0,0-245.46,163c-26.26,17.45-37.35,48.22-28.24,78.4S-21,512,10.54,512H501.46c31.53,0,57.79-19.5,66.9-49.69S566.38,401.36,540.12,383.91Zm-3.19,68.92c-3.84,12.74-15.18,26.35-35.47,26.35H10.54c-20.29,0-31.63-13.61-35.47-26.35s-1.93-30.35,15-41.57l245.43-163,0,0L256,234.64l20.49,13.61.1.07L522,411.26C538.86,422.48,540.78,440.09,536.93,452.83Z" transform="translate(59.5)"/></svg>