<svg id="Capa_1" data-name="Capa 1" xmlns="http://www.w3.org/2000/svg" viewBox="0 0 512 512"><path d="M332.8,192c0-77.76-74.48-140.8-166.4-140.8S0,114.24,0,192c0,31.66,12.5,60.77,33.34,84.32A218.36,218.36,0,0,1,1.67,322.46a6.17,6.17,0,0,0-1.16,6.69,6,6,0,0,0,5.62,3.65c30.68,0,56.61-8.9,76.59-19.23A189.51,189.51,0,0,0,166.4,332.8C258.32,332.8,332.8,269.76,332.8,192ZM479.68,406.16C499.84,382.32,512,352.48,512,320c0-77.76-68.8-140.8-153.6-140.8-.25,0-.49,0-.75,0,.35,4.21.75,8.45.75,12.77,0,78.9-63.74,145-148.88,162,16.64,61.28,76.16,106.8,148.88,106.8a164,164,0,0,0,74.28-17.58c19.48,9.58,44.2,17.58,73.16,17.58a6.05,6.05,0,0,0,5.62-3.68,6.17,6.17,0,0,0-1.16-6.69A223.63,223.63,0,0,1,479.68,406.16Z"/></svg>