<svg id="a940b9ce-66ef-4547-9d22-0001d0d16837" data-name="Capa 1" xmlns="http://www.w3.org/2000/svg" viewBox="0 0 512 512"><defs><style>.b19c8b0c-63ba-485e-ba84-de16ae00a7ba{fill:#010101;}</style></defs><path class="b19c8b0c-63ba-485e-ba84-de16ae00a7ba" d="M173.28,27.26a3.36,3.36,0,0,1,2.63,0l149.7,61.67,1.17.48,1.21.35a7.54,7.54,0,0,1,1.35.56,6.73,6.73,0,0,1,3,3.36l6.46,15.39,116.3,277.33a6.83,6.83,0,0,1-3.66,8.94l-210.57,88.3A6.84,6.84,0,0,1,232,480L115.72,202.77l-6.51-15.51a6.78,6.78,0,0,1-.23-4.65,8,8,0,0,1,.45-1.1l.46-.91.39-.94L171.42,29.13a3.39,3.39,0,0,1,1.86-1.87M164,5.13a27.32,27.32,0,0,0-14.81,15L88,170.63a30.84,30.84,0,0,0-1,25.91l6.5,15.51L209.84,489.26a30.83,30.83,0,0,0,40.35,16.51l210.57-88.31a30.83,30.83,0,0,0,16.51-40.36L361,99.78l-6.46-15.4a30.82,30.82,0,0,0-19.75-17.65L185.06,5.06A27.3,27.3,0,0,0,164,5.13Z"/><path class="b19c8b0c-63ba-485e-ba84-de16ae00a7ba" d="M62.93,460.51c-3.7-.14-6.72-2.88-6.6-6l11.2-289.62.63-16.2a5,5,0,0,1,1.43-3.28,5.77,5.77,0,0,1,.82-.73l.81-.62.75-.67,16.36-14.67L108.93,78l-53,47.5A30.1,30.1,0,0,0,52.1,129a29,29,0,0,0-7.93,18.78L43.55,164,32.34,453.6C31.71,470,45,483.84,62,484.49l135,5.23L186.78,465.3Z"/><path class="b19c8b0c-63ba-485e-ba84-de16ae00a7ba" d="M227.16,155.65a41.16,41.16,0,1,1,22-53.88A41.2,41.2,0,0,1,227.16,155.65Zm-22.55-53.78a17.16,17.16,0,1,0,22.46,9.18A17.17,17.17,0,0,0,204.61,101.87Z"/><path class="b19c8b0c-63ba-485e-ba84-de16ae00a7ba" d="M338.6,322.83a28.58,28.58,0,1,1,15.31-37.42A28.62,28.62,0,0,1,338.6,322.83Zm-15.92-38a12.59,12.59,0,1,0,16.47,6.74A12.6,12.6,0,0,0,322.68,284.86Z"/><path class="b19c8b0c-63ba-485e-ba84-de16ae00a7ba" d="M245.56,298.06a28.59,28.59,0,1,1,15.31-37.42A28.61,28.61,0,0,1,245.56,298.06Zm-15.92-38a12.58,12.58,0,1,0,16.47,6.74A12.6,12.6,0,0,0,229.64,260.09Z"/><path class="b19c8b0c-63ba-485e-ba84-de16ae00a7ba" d="M263.55,354.2a8,8,0,0,1-10.69-9.87L294,218.85a8,8,0,0,1,15.21,5L268.06,349.31A8,8,0,0,1,263.55,354.2Z"/></svg>