<svg id="Capa_1" data-name="Capa 1"
  xmlns="http://www.w3.org/2000/svg" viewBox="0 0 513.73 512">
  <path d="M64.48,61.07v.22a13.19,13.19,0,0,0-5.85-9.13V47.05a7,7,0,0,0-6.16-7L66.13,22.5,48.63,0,31.13,22.5,44.79,40.06a7.05,7.05,0,0,0-6.16,7v5.11a13.2,13.2,0,0,0-6,11.06V498.78A13.22,13.22,0,0,0,45.86,512h5.55a13.22,13.22,0,0,0,13.22-13.22V358.09a436.91,436.91,0,0,0,54.49,12A427.11,427.11,0,0,0,192.64,375c11.66-.23,22.46-.94,32.64-2V76.74c-9.91,1.07-20.41,1.79-31.71,2.05A417.54,417.54,0,0,1,64.48,61.07Z" transform="translate(-31.13 0)"/>
  <path d="M412.67,43.17c-10,.28-19.38.92-28.27,1.83V343c8-.76,16.34-1.33,25.2-1.65,31.58-1.13,77.88.57,134.88,15.36l.39-296.16C491.64,45.18,446.76,42.19,412.67,43.17Z" transform="translate(-31.13 0)"/>
</svg>
