<svg id="grid_4" data-name="grid_4"
  xmlns="http://www.w3.org/2000/svg" viewBox="0 0 348 348">
  <rect class="cls-1" y="16" width="72" height="64" rx="16"/>
  <rect class="cls-1" x="92" y="16" width="72" height="64" rx="16"/>
  <rect class="cls-1" x="184" y="16" width="72" height="64" rx="16"/>
  <rect class="cls-1" x="276" y="16" width="72" height="64" rx="16"/>
  <rect class="cls-1" y="100" width="72" height="64" rx="16"/>
  <rect class="cls-1" x="92" y="100" width="72" height="64" rx="16"/>
  <rect class="cls-1" x="184" y="100" width="72" height="64" rx="16"/>
  <rect class="cls-1" x="276" y="100" width="72" height="64" rx="16"/>
  <rect class="cls-1" y="184" width="72" height="64" rx="16"/>
  <rect class="cls-1" x="92" y="184" width="72" height="64" rx="16"/>
  <rect class="cls-1" x="184" y="184" width="72" height="64" rx="16"/>
  <rect class="cls-1" x="276" y="184" width="72" height="64" rx="16"/>
  <rect class="cls-1" y="268" width="72" height="64" rx="16"/>
  <rect class="cls-1" x="92" y="268" width="72" height="64" rx="16"/>
  <rect class="cls-1" x="184" y="268" width="72" height="64" rx="16"/>
  <rect class="cls-1" x="276" y="268" width="72" height="64" rx="16"/>
</svg>
