<svg id="Capa_1" data-name="Capa 1"
  xmlns="http://www.w3.org/2000/svg" viewBox="0 0 504.93 512">
  <path d="M256,30.63A45.61,45.61,0,0,0,298.75,60a44.85,44.85,0,0,0,34.32-15.69,45.08,45.08,0,0,0,10.45,28.31,45.92,45.92,0,0,0,35.32,16.59,44.51,44.51,0,0,0,22-5.75,44.86,44.86,0,0,0,3.52,37.43,45.32,45.32,0,0,0,46.78,22.5,45.69,45.69,0,0,0,26.77,73.53,45.66,45.66,0,0,0,0,78.24,45.69,45.69,0,0,0-26.77,73.53,45.32,45.32,0,0,0-46.78,22.5,44.86,44.86,0,0,0-3.52,37.43,44.51,44.51,0,0,0-22-5.75,46,46,0,0,0-35.32,16.58,45.13,45.13,0,0,0-10.45,28.32A44.85,44.85,0,0,0,298.75,452,45.61,45.61,0,0,0,256,481.37,45.63,45.63,0,0,0,213.25,452a44.85,44.85,0,0,0-34.32,15.69,45.08,45.08,0,0,0-10.45-28.31,45.91,45.91,0,0,0-35.32-16.59,44.51,44.51,0,0,0-22,5.75,44.86,44.86,0,0,0-3.52-37.43A45.75,45.75,0,0,0,68.2,368.06h0a45.91,45.91,0,0,0-7.31.59,45.68,45.68,0,0,0-26.77-73.52,45.67,45.67,0,0,0,0-78.25,45.69,45.69,0,0,0,26.77-73.53,45.32,45.32,0,0,0,46.78-22.5,44.86,44.86,0,0,0,3.52-37.43,44.51,44.51,0,0,0,22,5.75,45.92,45.92,0,0,0,35.32-16.59,45.08,45.08,0,0,0,10.45-28.31A44.85,44.85,0,0,0,213.25,60,45.62,45.62,0,0,0,256,30.63M256,0c-9.63,0-19.26,6-21.31,18h0a21.42,21.42,0,0,1-21.44,18A21.13,21.13,0,0,1,194.61,25h0a20.76,20.76,0,0,0-18.38-11c-12.29,0-24.43,10.32-21.66,25.56h0c2.63,14.48-8.95,25.56-21.41,25.56A21.2,21.2,0,0,1,119.32,60h0a21.21,21.21,0,0,0-13.86-5.32c-15,0-28.15,16.69-18.78,32.72h0c8.83,15.11-2.88,32.58-18.48,32.58a22,22,0,0,1-7.69-1.41h0a22.8,22.8,0,0,0-7.92-1.47c-18.49,0-29.84,24.71-13.38,38.38h0c15.58,12.94,6.41,38.24-13.8,38.24h-.26c-24.19,0-30.11,33.79-7.26,42h0c19.1,6.84,19.1,33.86,0,40.7h0c-22.85,8.18-16.93,42,7.26,42h.26c20.21,0,29.38,25.31,13.8,38.24h0c-16.46,13.67-5.12,38.38,13.38,38.38a22.8,22.8,0,0,0,7.92-1.47h0a22,22,0,0,1,7.69-1.41c15.6,0,27.31,17.47,18.48,32.58h0c-9.37,16,3.79,32.72,18.78,32.72A21.26,21.26,0,0,0,119.32,452h0a21.2,21.2,0,0,1,13.84-5.21c12.46,0,24,11.08,21.41,25.56h0C151.8,487.64,163.94,498,176.23,498a20.75,20.75,0,0,0,18.38-11h0A21.12,21.12,0,0,1,213.25,476a21.43,21.43,0,0,1,21.44,18h0c2.05,12,11.68,18,21.31,18s19.26-6,21.31-18h0a21.42,21.42,0,0,1,21.44-18A21.13,21.13,0,0,1,317.39,487h0a20.76,20.76,0,0,0,18.38,11c12.29,0,24.43-10.32,21.66-25.56h0c-2.63-14.48,8.95-25.56,21.41-25.56A21.2,21.2,0,0,1,392.68,452h0a21.21,21.21,0,0,0,13.86,5.32c15,0,28.15-16.69,18.78-32.72h0c-8.83-15.11,2.88-32.58,18.48-32.58a22,22,0,0,1,7.69,1.41h0a22.8,22.8,0,0,0,7.92,1.47c18.49,0,29.84-24.71,13.38-38.38h0c-15.58-12.94-6.41-38.25,13.8-38.24h.26c24.19,0,30.11-33.79,7.26-42h0c-19.1-6.84-19.1-33.86,0-40.7h0c22.85-8.18,16.93-42-7.26-42h-.26c-20.21,0-29.38-25.31-13.8-38.24h0c16.46-13.67,5.12-38.38-13.38-38.38a22.8,22.8,0,0,0-7.92,1.47h0a22,22,0,0,1-7.69,1.41c-15.6,0-27.31-17.47-18.48-32.58h0c9.37-16-3.79-32.72-18.78-32.72A21.26,21.26,0,0,0,392.68,60h0a21.2,21.2,0,0,1-13.84,5.21c-12.46,0-24-11.08-21.41-25.56h0c2.77-15.25-9.37-25.56-21.66-25.56a20.75,20.75,0,0,0-18.38,11h0A21.12,21.12,0,0,1,298.75,36a21.42,21.42,0,0,1-21.44-18h0C275.26,6,265.63,0,256,0Z" transform="translate(-3.54 0)"/>
  <path d="M256,432C159,432,80,353.05,80,256S159,80,256,80,432,159,432,256,353.05,432,256,432Zm0-320c-79.4,0-144,64.6-144,144s64.6,144,144,144,144-64.6,144-144S335.4,112,256,112Z" transform="translate(-3.54 0)"/>
  <path d="M234.36,318.23A15.94,15.94,0,0,1,223,313.54l-35.93-35.92A16,16,0,0,1,209.74,255l24.62,24.61,75.46-75.46a16,16,0,1,1,22.62,22.63l-86.77,86.77A15.92,15.92,0,0,1,234.36,318.23Z" transform="translate(-3.54 0)"/>
</svg>
