<?xml version="1.0" encoding="utf-8"?>
<!-- Generator: Adobe Illustrator 25.4.1, SVG Export Plug-In . SVG Version: 6.00 Build 0)  -->
<svg version="1.1" id="Capa_1" xmlns="http://www.w3.org/2000/svg" xmlns:xlink="http://www.w3.org/1999/xlink" x="0px" y="0px"
	 viewBox="0 0 512 512" style="enable-background:new 0 0 512 512;" xml:space="preserve">
<path d="M369,55.3c6,0,12,0.5,18,1.6c25.6,4.5,49.1,18.8,66.1,40.1c17.3,21.8,26.9,49.6,26.9,78.3v6.2c0,35.5-13.9,69.7-38.1,93.7
	L261.2,454.4l-0.1,0.1l-0.1,0.1c-1.7,1.7-3.6,2.1-4.9,2.1c-1.3,0-3.2-0.3-4.9-2l-0.1-0.1l-0.1-0.1l-0.1-0.1L70.1,275.1
	c-24.2-24-38.1-58.1-38.1-93.6v-6.2c0-28.7,9.6-56.5,26.9-78.2c17-21.3,40.4-35.5,66.1-40.1l0.1,0l0.1,0c5.7-1,11.6-1.6,17.5-1.6
	c29.1,0,57.5,12.5,78,34.4l0,0l0,0l12,12.7l24.2,25.7l23.2-26.6l10.5-12.1C312.2,67.5,340,55.3,369,55.3 M369,23.3
	c-37.6,0-74.2,15.8-101.9,44.5L256,80.6l-12-12.7c-27-28.7-64-44.5-101.4-44.5c-7.8,0-15.5,0.7-23.2,2.1C50.5,37.6,0,101,0,175.3
	v6.2c0,44.1,17.2,86.3,47.6,116.4l180.7,179.3c0.1,0.1,0.2,0.2,0.4,0.4c7.6,7.5,17.5,11.2,27.3,11.2c10,0,20.1-3.9,27.7-11.6
	l180.7-179.3c30.4-30.1,47.6-72.3,47.6-116.4v-6.2c0-74.3-50.5-137.6-119.4-149.8C384.7,24,376.9,23.3,369,23.3L369,23.3z"/>
</svg>
