<svg id="aaa10ea0-e565-4538-ae55-bb8f5754deda" data-name="Capa 1" xmlns="http://www.w3.org/2000/svg" viewBox="0 0 512 512"><path d="M506.58,247.36l-241-212.54a16,16,0,0,0-21.16,0L5.42,245.35a16,16,0,1,0,21.16,24L56,243.44V426.68a54.5,54.5,0,0,0,54.5,54.5h291a54.5,54.5,0,0,0,54.5-54.5V245.42l29.42,25.94a16,16,0,1,0,21.16-24ZM229,449.18v-116h54v116Zm195-22.5a22.52,22.52,0,0,1-22.5,22.5H315v-134a14,14,0,0,0-14-14H211a14,14,0,0,0-14,14v134H110.5A22.52,22.52,0,0,1,88,426.68V215.25L255,68.15l169,149Z"/></svg>