<svg id="Capa_1" data-name="Capa 1" xmlns="http://www.w3.org/2000/svg" viewBox="0 0 512 512"><path d="M256.06,124.76A131.24,131.24,0,1,0,387.3,256,131,131,0,0,0,256.06,124.76Zm0,216.56A85.32,85.32,0,1,1,341.38,256a85.48,85.48,0,0,1-85.32,85.32ZM423.28,119.39a30.61,30.61,0,1,1-30.61-30.61A30.54,30.54,0,0,1,423.28,119.39Zm86.92,31.07c-1.94-41-11.31-77.33-41.35-107.26S402.6,3.91,361.6,1.86c-42.26-2.4-168.94-2.4-211.2,0C109.51,3.8,73.19,13.16,43.15,43.09S3.85,109.34,1.8,150.34c-2.4,42.27-2.4,168.94,0,211.2,1.94,41,11.31,77.33,41.35,107.26s66.25,39.29,107.25,41.34c42.26,2.4,168.94,2.4,211.2,0,41-1.94,77.33-11.3,107.25-41.34s39.29-66.25,41.35-107.26c2.4-42.26,2.4-168.82,0-211.08ZM455.6,406.89a86.41,86.41,0,0,1-48.66,48.66c-33.69,13.36-113.65,10.28-150.88,10.28s-117.31,3-150.89-10.28a86.38,86.38,0,0,1-48.66-48.66C43.15,373.19,46.23,293.24,46.23,256s-3-117.31,10.28-150.89a86.44,86.44,0,0,1,48.66-48.66c33.7-13.36,113.65-10.28,150.89-10.28s117.3-3,150.88,10.28a86.38,86.38,0,0,1,48.66,48.66C469,138.81,465.88,218.76,465.88,256S469,373.31,455.6,406.89Z"/></svg>