<svg id="bc3d9cd0-0a2d-4ed5-8d4e-85086789a9e9" data-name="bc16ba16-17ab-4e8d-b75d-cbda602bbe0f" xmlns="http://www.w3.org/2000/svg" viewBox="0 0 576 195.77"><defs><style>.b369c628-c325-42d4-8e26-6bed8ce00f3d{fill:#e64442;}.a441fea5-13bb-40e0-b620-528e4f17b00d{fill:#3cd2ce;}</style></defs><rect class="b369c628-c325-42d4-8e26-6bed8ce00f3d" x="3.96" y="50.92" width="27.72" height="101.85"/><path class="b369c628-c325-42d4-8e26-6bed8ce00f3d" d="M126,131.21a20.33,20.33,0,0,0-5.66-4,14.26,14.26,0,0,0-6.79-1.14,28.21,28.21,0,0,0-6.79,1.14,19.88,19.88,0,0,0-9.62,9.61A14.39,14.39,0,0,0,96,143.65a28.61,28.61,0,0,0,1.13,6.79,19.85,19.85,0,0,0,9.62,9.62,14.37,14.37,0,0,0,6.79,1.13,28.19,28.19,0,0,0,6.79-1.13,19.85,19.85,0,0,0,9.62-9.62,14.35,14.35,0,0,0,1.13-6.79,28.78,28.78,0,0,0-1.13-6.79C128.82,134.6,127.12,132.9,126,131.21Z" transform="translate(-96 -126.11)"/><path class="b369c628-c325-42d4-8e26-6bed8ce00f3d" d="M289.51,131.21a20.33,20.33,0,0,0-5.66-4,14.26,14.26,0,0,0-6.79-1.14,28.21,28.21,0,0,0-6.79,1.14,19.88,19.88,0,0,0-9.62,9.61,14.39,14.39,0,0,0-1.13,6.79,28.61,28.61,0,0,0,1.13,6.79,19.85,19.85,0,0,0,9.62,9.62,14.37,14.37,0,0,0,6.79,1.13,28.19,28.19,0,0,0,6.79-1.13,19.85,19.85,0,0,0,9.62-9.62,14.35,14.35,0,0,0,1.13-6.79,28.27,28.27,0,0,0-1.13-6.79A20.13,20.13,0,0,0,289.51,131.21Z" transform="translate(-96 -126.11)"/><rect class="b369c628-c325-42d4-8e26-6bed8ce00f3d" x="167.48" y="50.92" width="27.72" height="101.85"/><path class="a441fea5-13bb-40e0-b620-528e4f17b00d" d="M407.2,190.05a53.84,53.84,0,0,0-15.84-11.32,46.09,46.09,0,0,0-19.81-4c-6.79,0-13,1.14-18.1,4A44.41,44.41,0,0,0,341,188.92V177.6H314.4V321.89h27.16V269.27A35.11,35.11,0,0,0,354,278.88a42.06,42.06,0,0,0,17.54,3.4,47.7,47.7,0,0,0,19.81-4A45.31,45.31,0,0,0,407.2,267a42.46,42.46,0,0,0,10.18-17c2.27-6.79,4-13.58,4-21.5a53.86,53.86,0,0,0-4-21.5A42.69,42.69,0,0,0,407.2,190.05Zm-15.84,49.23a28.8,28.8,0,0,1-5.1,9.05,32.84,32.84,0,0,1-8.48,6.22,26.59,26.59,0,0,1-21.5,0,22.33,22.33,0,0,1-8.49-5.65,23.53,23.53,0,0,1-5.09-9.06,38.51,38.51,0,0,1,0-22.63,28.58,28.58,0,0,1,5.09-9.05,22.24,22.24,0,0,1,8.49-5.66c3.39-1.13,6.78-2.26,10.75-2.26s7.92.56,10.75,2.26c3.39,1.7,6.22,3.39,8.48,6.22a23.68,23.68,0,0,1,5.1,9.06,35,35,0,0,1,0,21.5Z" transform="translate(-96 -126.11)"/><path class="a441fea5-13bb-40e0-b620-528e4f17b00d" d="M516.4,188.35A44.38,44.38,0,0,0,504,178.17c-5.09-2.83-10.75-4-18.1-4a47.7,47.7,0,0,0-19.81,4,45.18,45.18,0,0,0-15.84,11.32,42.46,42.46,0,0,0-10.18,17c-2.27,6.79-4,13.58-4,21.5a53.86,53.86,0,0,0,4,21.5,50.28,50.28,0,0,0,10.18,17A54,54,0,0,0,466,277.75a45.94,45.94,0,0,0,19.81,4c6.79,0,13-1.13,18.1-4s9.06-5.66,12.45-10.18v11.31H543V177H516.4Zm-1.13,50.93a28.77,28.77,0,0,1-5.09,9.05,22.51,22.51,0,0,1-8.49,5.66c-3.4,1.13-6.79,2.26-10.75,2.26A22.92,22.92,0,0,1,480.19,254c-3.4-1.7-6.23-3.4-8.49-6.23a23.55,23.55,0,0,1-5.09-9,35.53,35.53,0,0,1-1.7-10.75,33,33,0,0,1,1.7-10.75,28.77,28.77,0,0,1,5.09-9.05,32.75,32.75,0,0,1,8.49-6.23,26.7,26.7,0,0,1,21.5,0,22.51,22.51,0,0,1,8.49,5.66,23.62,23.62,0,0,1,5.09,9,38.54,38.54,0,0,1,0,22.64Z" transform="translate(-96 -126.11)"/><polygon class="a441fea5-13bb-40e0-b620-528e4f17b00d" points="546.01 50.92 518.85 103.54 490.56 50.92 459.44 50.92 503.58 131.27 467.93 195.77 497.92 195.77 576 50.92 546.01 50.92"/><polygon class="b369c628-c325-42d4-8e26-6bed8ce00f3d" points="86 130.14 96.75 119.95 84.87 100.15 53.19 130.14 53.19 130.14 53.19 130.14 53.19 130.14 53.19 130.14 58.84 152.77 145.41 153.34 139.76 130.14 86 130.14"/><polygon class="b369c628-c325-42d4-8e26-6bed8ce00f3d" points="145.41 74.69 139.76 51.49 55.45 51.49 61.67 74.12 112.6 74.69 101.85 84.31 113.16 104.68 145.41 74.69 145.41 74.69 145.41 74.69"/></svg>