<svg id="ff0a89b7-80b1-4f25-bcab-2ba8602cfc03" data-name="Capa 1" xmlns="http://www.w3.org/2000/svg" viewBox="0 0 512 512"><defs><style>.f6efcc77-a364-46e0-997a-6c0b1e8fa25a{fill:#010101;}</style></defs><path d="M350.15,263.47l.12-.24c.19-.38.37-.77.54-1.16,0-.11.07-.22.11-.32a12,12,0,0,0,.4-1.15c0-.13.07-.26.11-.39.09-.37.19-.73.27-1.11,0-.18.05-.37.08-.56s.11-.64.14-1a12.75,12.75,0,0,0,.07-1.38c0-.06,0-.11,0-.18h0c0-.53,0-1.07-.08-1.6,0-.13,0-.26-.06-.39-.05-.39-.1-.78-.18-1.17,0-.16-.07-.3-.11-.45-.08-.36-.17-.73-.28-1.09,0-.12-.08-.24-.12-.36-.13-.38-.26-.76-.42-1.13l-.09-.21c-.18-.41-.37-.82-.59-1.22h0a15.9,15.9,0,0,0-2.75-3.69l-140-140a16,16,0,0,0-22.62,22.62L297.39,240H16a16,16,0,0,0,0,32H297.36L184.69,384.69a16,16,0,1,0,22.62,22.62L347.15,267.48a16.17,16.17,0,0,0,2.21-2.67l0-.06A14.78,14.78,0,0,0,350.15,263.47Z"/><path class="f6efcc77-a364-46e0-997a-6c0b1e8fa25a" d="M404,478.5H350a16,16,0,0,1,0-32h54a76.08,76.08,0,0,0,76-76v-229a76.08,76.08,0,0,0-76-76H350a16,16,0,0,1,0-32h54a108.12,108.12,0,0,1,108,108v229A108.12,108.12,0,0,1,404,478.5Z"/></svg>