<svg id="Capa_1" data-name="Capa 1" xmlns="http://www.w3.org/2000/svg" viewBox="0 0 950 478"><path d="M14,72.9h75.6q36.9,0,55.34,19.8t18.45,58.05v159.3q0,38.25-18.45,58.05T89.58,387.9H14Zm74.69,270q12.15,0,18.68-7.2t6.52-23.4V148.5q0-16.2-6.52-23.4t-18.68-7.2H63.52v225Z"/><path d="M196.67,72.9H270q38.25,0,55.8,17.78t17.56,54.67V164.7q0,49.05-32.4,62.1v.9q18,5.4,25.42,22.05t7.42,44.55v55.35a206.46,206.46,0,0,0,.91,21.82,53.93,53.93,0,0,0,4.5,16.43H298.82a71.42,71.42,0,0,1-3.59-14.4q-.93-6.75-.91-24.3V291.6q0-21.6-7-30.15t-24.07-8.55H246.14v135h-49.5Zm67.5,135q14.86,0,22.27-7.65t7.43-25.65V150.3q0-17.1-6.08-24.75t-19.12-7.65h-22.5v90Z"/><path d="M395.13,371.93q-18.92-20.48-18.9-58.73V72.9h49.5V316.8q0,16.2,6.52,23.4t18.67,7.2q12.15,0,18.68-7.2t6.53-23.4V72.9h47.69V313.2q0,38.25-18.9,58.73T450,392.4Q414,392.4,395.13,371.93Z"/><path d="M558.92,72.9h70.6L661,298.35h.91L693.47,72.9h70.65v315h-46.8V149.4h-.9l-36,238.5H639L603,149.4h-.9V387.9h-43.2Z"/><path d="M801,72.9H936v45H850.52v83.25h68v45h-68V342.9H936v45H801ZM873,0h54L878.87,51.75H841.52Z"/></svg>