<svg id="a64c26c0-016e-4cea-85b0-b4b7a7d0a076" data-name="a71a13bb-8b45-40cf-b521-f3c170e24cf0" xmlns="http://www.w3.org/2000/svg" viewBox="0 0 512 512"><defs><style>.ab1dd53e-a5a7-4760-8586-b038b1e74102{fill:#010101;}</style></defs><path d="M2.63,264.61v.06a16.17,16.17,0,0,0,2.21,2.67L144.72,407.17l.58.58c.31.32.63.62,1,.91a16,16,0,1,0,21-24.11L54.63,271.86H336a16,16,0,0,0,0-32H54.6L167.3,127.13a16,16,0,0,0-22.62-22.62l-140,140a15.77,15.77,0,0,0-2.75,3.69h0c-.22.4-.41.81-.59,1.22l-.09.21c-.16.37-.29.75-.42,1.13a1.9,1.9,0,0,0-.12.36c-.11.36-.2.73-.28,1.09a2.28,2.28,0,0,0-.11.45c-.08.39-.13.78-.18,1.17a.86.86,0,0,0-.06.39,12.25,12.25,0,0,0-.08,1.6H0V256a13.13,13.13,0,0,0,.07,1.4c0,.36.14.81.14,1a3.43,3.43,0,0,1,.08.56c.08.38.18.74.27,1.11a1.09,1.09,0,0,1,.11.39c.12.39.25.77.4,1.15a.76.76,0,0,1,.11.32c.17.39.35.78.54,1.16l.12.24C2.08,263.77,2.35,264.2,2.63,264.61Z"/><path class="ab1dd53e-a5a7-4760-8586-b038b1e74102" d="M404,478.64H350a16,16,0,0,1,0-32h54a76.07,76.07,0,0,0,76-76v-229a76.07,76.07,0,0,0-76-76H350a16,16,0,0,1,0-32h54a108.12,108.12,0,0,1,108,108v229A108.12,108.12,0,0,1,404,478.64Z"/></svg>