<svg id="logo-bartech" data-name="logo" xmlns="http://www.w3.org/2000/svg" viewBox="0 0 502.84 111.64"><path fill="currentColor" d="M458.72,41.36a15.46,15.46,0,0,1,8.08,2.29V12.86H451v30.6A15.35,15.35,0,0,1,458.72,41.36Z" transform="translate(-12.22 -12.36)"/><path fill="currentColor" d="M498.61,12.86l.11,36.5-26.4.08a15.43,15.43,0,0,1-.08,15l26.48.3v37.77l15.84.15V12.86Z" transform="translate(-12.22 -12.36)"/><path fill="currentColor" d="M458.72,72.36A15.45,15.45,0,0,1,451,70.27v32.37h16.16V69.87A15.38,15.38,0,0,1,458.72,72.36Z" transform="translate(-12.22 -12.36)"/><circle fill="currentColor" cx="446.5" cy="44.5" r="7.5"/><path fill="currentColor" d="M435.83,28.26H409.22a12,12,0,0,0-12,12v35.1a12,12,0,0,0,12,12h26.61v15.28H409.37a28.56,28.56,0,0,1-28.56-28.79l.27-32.39A28.54,28.54,0,0,1,409.6,13.14l26.23,0Z" transform="translate(-12.22 -12.36)"/><polygon fill="currentColor" points="227.8 0.74 227.8 16.04 245.28 16.04 245.28 90.28 261.28 90.28 261.28 16.04 279.86 16.04 279.86 0.74 227.8 0.74"/><path fill="currentColor" d="M160.07,13.11V28.45h39.07a13,13,0,0,1,13,13v2.6a13,13,0,0,1-13,13H178.46a7.76,7.76,0,0,0-7,11.18l16.86,34.41H205.8l-13.05-26.4a2.85,2.85,0,0,1,2.56-4.12h5.13a27.8,27.8,0,0,0,27.8-27.79V43.19a30.08,30.08,0,0,0-30.09-30.08Z" transform="translate(-12.22 -12.36)"/><circle fill="currentColor" cx="85.02" cy="79.65" r="7.5"/><rect fill="currentColor" x="118.72" y="73.72" width="15.83" height="37.42"/><path fill="currentColor" d="M120.53,13.11h-5.1a26,26,0,0,0-26.05,26V73.64h0a11.12,11.12,0,0,1,15.71,0h0V38.72A10.32,10.32,0,0,1,115.41,28.4h5.69a9.85,9.85,0,0,1,9.84,9.84v35.4h15.83V39.34A26.23,26.23,0,0,0,120.53,13.11Z" transform="translate(-12.22 -12.36)"/><path fill="currentColor" d="M73.59,71C72,63.78,67.2,57.9,65.71,57.08h0c1.63.23,7.26-6.7,7.48-14.29v-3.7a26,26,0,0,0-26-26H12.72V28.4H48.94a10,10,0,0,1,10,10v1.13a10,10,0,0,1-10,10H12.72v7.55h0v8.67H50a10,10,0,0,1,10,10v1.13a10,10,0,0,1-10,10H12.72l0,15.76H47.23c16.76-.67,25.38-9.5,26.71-26V74.4A15.7,15.7,0,0,0,73.59,71Z" transform="translate(-12.22 -12.36)"/><path fill="currentColor" d="M304.84,71c1.57-7.2,6.39-13.08,7.89-13.9h0c-1.63.23-7.26-6.7-7.48-14.29v-3.7a26,26,0,0,1,26-26h34.46V28.4H329.49a10,10,0,0,0-10,10v1.13a10,10,0,0,0,10,10h36.23v7.55h0v8.67H328.41a10,10,0,0,0-10,10v1.13a10,10,0,0,0,10,10h37.31l-.06,15.76H331.21c-16.77-.67-25.38-9.5-26.72-26V74.4A15.7,15.7,0,0,1,304.84,71Z" transform="translate(-12.22 -12.36)"/></svg>