<svg id="b363d734-9733-4672-b937-da005964d333" data-name="Capa 1" xmlns="http://www.w3.org/2000/svg" viewBox="0 0 768 448"><defs><style>.b300fa57-5745-4412-b85a-762666f92386{fill:#254762;}.a6debe09-4928-4996-b069-7356545847ed{fill:none;}.b95a0e4e-2adc-4460-b4f4-2c7dc1cf7a84{fill:#fff;}.e03cfac8-0500-455f-a5e3-e0092763e606,.f3d03032-5841-4caf-92c5-f2d5c2a822a9{fill:#ee2d1e;}.b9eac2cd-4e8c-48e1-b2ba-78d63fac937c{fill:#faa818;}.f3d03032-5841-4caf-92c5-f2d5c2a822a9{opacity:0.25;}</style></defs><path class="b300fa57-5745-4412-b85a-762666f92386" d="M704,32H64C28.67,32,0,53.5,0,80V432c0,26.5,28.67,48,64,48H704c35.33,0,64-21.5,64-48V80C768,53.5,739.33,32,704,32Z" transform="translate(0 -32)"/><path class="a6debe09-4928-4996-b069-7356545847ed" d="M598.8,422.6c-.3-.2-.6-.2-1.1-.5-.3-.3-.6-.3-1.1-.3a1.82,1.82,0,0,0-1.1.3,3.51,3.51,0,0,0-.8.5,1.88,1.88,0,0,0-.5,1.1c-.3.3-.3.6-.3,1.1a1.82,1.82,0,0,0,.3,1.1c0,.3.2.5.5.8s.5.5.8.5a2,2,0,0,0,1.1.3c.6,0,.8,0,1.1-.3a1.29,1.29,0,0,0,1.1-.5,3.51,3.51,0,0,1,.5-.8c0-.6.3-.8.3-1.1,0-.6-.3-.8-.3-1.1C599,423.2,599.1,422.8,598.8,422.6Zm-.6,3.8h-.8l-1.1-1.4H596v1.4h-.8v-3.5h1.6c.6,0,.8.3,1.1.3a1.22,1.22,0,0,1,0,1.6c-.3,0-.3.3-.8.3h0Z" transform="translate(0 -32)"/><ellipse class="a6debe09-4928-4996-b069-7356545847ed" cx="567.7" cy="377.3" rx="11.2" ry="11.7"/><path class="b95a0e4e-2adc-4460-b4f4-2c7dc1cf7a84" d="M304.2,401.4c0-5.7,11.9-4.8,18.5-1.1l3.3-6.5c-9.4-6.1-30.2-6-30.2,8.2s22.9,8.3,22.9,15c0,6.3-13.5,5.8-20.7.8l-3.5,6.3c11.2,7.6,32.6,6,32.6-7.5C327.1,401.6,304.2,408.4,304.2,401.4Z" transform="translate(0 -32)"/><path class="b95a0e4e-2adc-4460-b4f4-2c7dc1cf7a84" d="M278.7,395.4A14.41,14.41,0,0,0,267,390c-10.3,0-18.2,8.2-18.2,19.3s7.9,19.3,18.2,19.3c5.2,0,9-1.9,11.7-5.4v4.6h7.9V391h-7.9ZM268.1,421c-7.1,0-11.2-5.2-11.2-11.7s4.1-11.7,11.2-11.7c6.5,0,10.8,5.2,10.9,11.7C279,416.1,274.6,421,268.1,421Z" transform="translate(0 -32)"/><path class="b95a0e4e-2adc-4460-b4f4-2c7dc1cf7a84" d="M348.1,415V398.4h13.1V391H348.1V379.8h-8.2V391h-7.6v7.3h7.6V415c0,17.6,17.3,14.4,22.6,10.9l-2.2-6.8C356.5,421.2,348.1,423.5,348.1,415Z" transform="translate(0 -32)"/><path class="a6debe09-4928-4996-b069-7356545847ed" d="M385.6,397.3c-5.4,0-8.7,3.5-9.5,8.7h19.1C394.3,400.3,390.8,397.3,385.6,397.3Z" transform="translate(0 -32)"/><path class="b95a0e4e-2adc-4460-b4f4-2c7dc1cf7a84" d="M227,390c-4.6,0-9.5,1.4-12.8,6.5-2.4-4.1-6.5-6.5-12.2-6.5a12.7,12.7,0,0,0-10.6,5.4V391h-8.2v36.7h8.2c0-18.9-2.5-30.2,9-30.2,10.2,0,8.2,10.2,8.2,30.2h7.9c0-18.3-2.5-30.2,9-30.2,10.2,0,8.2,10,8.2,30.2h8.2v-23h-.2C241.7,396,236,390.3,227,390Z" transform="translate(0 -32)"/><path class="e03cfac8-0500-455f-a5e3-e0092763e606" d="M298.5,358.1A139.43,139.43,0,0,0,375,335c-72.9-59.3-72.4-171.2,0-230.5a138.61,138.61,0,0,0-76.5-23.1c-76.4-.1-138.5,62-138.5,138.2A138.55,138.55,0,0,0,298.5,358.1Z" transform="translate(0 -32)"/><path class="b9eac2cd-4e8c-48e1-b2ba-78d63fac937c" d="M393,334.9A138.44,138.44,0,0,0,608,219.6c0-76.2-62.1-138.3-138.5-138.3A139.43,139.43,0,0,0,393,104.4C465.1,163.7,466.2,275.9,393,334.9Z" transform="translate(0 -32)"/><path class="a6debe09-4928-4996-b069-7356545847ed" d="M268.1,397.6c-7.1,0-11.2,5.2-11.2,11.7S261,421,268.1,421c6.5,0,10.9-4.9,10.9-11.7C278.9,402.8,274.6,397.6,268.1,397.6Z" transform="translate(0 -32)"/><path class="b95a0e4e-2adc-4460-b4f4-2c7dc1cf7a84" d="M385.9,389.9c-10.6,0-18.2,7.9-18.2,19.3,0,20.5,22.6,23.9,33.8,14.2l-3.8-6c-7.8,6.4-19.6,5.8-21.9-4.9h27.5C403.3,396.3,395.9,389.9,385.9,389.9ZM376.1,406c.8-5.2,4.1-8.7,9.5-8.7,5.2,0,8.7,3,9.6,8.7Z" transform="translate(0 -32)"/><path class="b9eac2cd-4e8c-48e1-b2ba-78d63fac937c" d="M384,328.4c70.5-55,70.2-162.2,0-217.5C313.8,166.2,313.5,273.5,384,328.4Z" transform="translate(0 -32)"/><path class="b95a0e4e-2adc-4460-b4f4-2c7dc1cf7a84" d="M530.7,395.4V391h-7.9v36.7h7.9V407c0-11,9-10.3,12.8-8.4l2.4-7.6C543.5,389.8,534.9,388.1,530.7,395.4Z" transform="translate(0 -32)"/><path class="b95a0e4e-2adc-4460-b4f4-2c7dc1cf7a84" d="M597.9,424.8a1.22,1.22,0,0,0,0-1.6c-.3,0-.5-.3-1.1-.3h-1.6v3.5h.8V425h.3l1.1,1.4h.8l-1.1-1.3h0C597.6,425.1,597.6,424.8,597.9,424.8Z" transform="translate(0 -32)"/><path class="b95a0e4e-2adc-4460-b4f4-2c7dc1cf7a84" d="M419.7,395.4V391h-8.2v36.7h8.2V407c0-11.6,9.5-10.1,12.8-8.4l2.4-7.6h0C430.3,389,423.3,389.2,419.7,395.4Z" transform="translate(0 -32)"/><polygon class="b95a0e4e-2adc-4460-b4f4-2c7dc1cf7a84" points="593.8 269 593.8 273.6 594.6 273.6 594.6 269 596.5 269 596.5 268.2 591.9 268.2 591.9 269 593.8 269 593.8 269"/><polygon class="b95a0e4e-2adc-4460-b4f4-2c7dc1cf7a84" points="600.6 271.6 599 268.1 597.6 268.1 597.6 273.5 598.4 273.5 598.4 269.4 600 272.9 601.1 272.9 602.5 269.4 602.5 273.5 603.6 273.5 603.6 268.1 602.2 268.1 600.6 271.6"/><path class="b95a0e4e-2adc-4460-b4f4-2c7dc1cf7a84" d="M599.3,422.1c-.3-.3-.8-.5-1.1-.8-.5,0-1.1-.3-1.6-.3a10.63,10.63,0,0,1-1.4.3,5.22,5.22,0,0,0-1.1.8,1.56,1.56,0,0,0-.8,1.1,3,3,0,0,0-.3,1.6,2.91,2.91,0,0,0,.3,1.4,1.56,1.56,0,0,0,.8,1.1,3.47,3.47,0,0,0,1.1.8,2.72,2.72,0,0,0,1.4.3,3,3,0,0,0,1.6-.3c.3-.3.8-.5,1.1-.8s.5-.8.8-1.1a2.91,2.91,0,0,0,.3-1.4,3,3,0,0,0-.3-1.6C599.8,422.9,599.6,422.4,599.3,422.1Zm0,3.8a3.51,3.51,0,0,0-.5.8,1.29,1.29,0,0,1-1.1.5c-.3.3-.5.3-1.1.3a2,2,0,0,1-1.1-.3c-.3,0-.5-.3-.8-.5s-.5-.5-.5-.8a1.82,1.82,0,0,1-.3-1.1c0-.5,0-.8.3-1.1a1.88,1.88,0,0,1,.5-1.1,3.51,3.51,0,0,1,.8-.5,1.82,1.82,0,0,1,1.1-.3c.5,0,.8,0,1.1.3.5.3.8.3,1.1.5s.2.6.5,1.1c0,.3.3.5.3,1.1C599.6,425.1,599.3,425.3,599.3,425.9Z" transform="translate(0 -32)"/><path class="a6debe09-4928-4996-b069-7356545847ed" d="M493.4,397.6c-6.8,0-10.9,5.2-10.9,11.7s4.1,11.7,10.9,11.7,11.2-4.9,11.2-11.7C504.6,402.8,500.2,397.6,493.4,397.6Z" transform="translate(0 -32)"/><path class="b95a0e4e-2adc-4460-b4f4-2c7dc1cf7a84" d="M466.2,400.9l3.8-6.5c-11.6-9.1-32.7-4.1-32.7,15,0,19.8,22.4,23.8,32.7,15l-3.8-6.5c-9.2,6.5-20.7,2.6-20.7-8.6C445.5,397.9,457.1,394.2,466.2,400.9Z" transform="translate(0 -32)"/><path class="b95a0e4e-2adc-4460-b4f4-2c7dc1cf7a84" d="M504,395.4c-8.3-11-29.9-4.8-29.9,13.9,0,19.2,22.4,24.7,29.9,13.9v4.6h8.2V391H504ZM493.4,421c-6.8,0-10.9-5.2-10.9-11.7s4.1-11.7,10.9-11.7,11.2,5.2,11.2,11.7C504.6,416.1,500.2,421,493.4,421Z" transform="translate(0 -32)"/><path class="b95a0e4e-2adc-4460-b4f4-2c7dc1cf7a84" d="M578.3,395.4c-8.2-10.9-29.9-5.1-29.9,13.9,0,19.4,22.5,24.6,29.9,13.9v4.6h7.9V376.1h-7.9ZM567.7,421c-6.8,0-11.2-5.2-11.2-11.7s4.4-11.7,11.2-11.7c6.6,0,11.2,5.2,11.2,11.7C578.9,416.1,574.3,421,567.7,421Z" transform="translate(0 -32)"/><path class="f3d03032-5841-4caf-92c5-f2d5c2a822a9" d="M384,328.4c70.5-55,70.2-162.2,0-217.5C313.8,166.2,313.5,273.5,384,328.4Z" transform="translate(0 -32)"/></svg>