<svg id="Capa_1" data-name="Capa 1" xmlns="http://www.w3.org/2000/svg" viewBox="0 0 512 512"><path d="M276.27,307.83c34.83-.17,55.9-21.37,55.92-55.92V108.63c0-36.8-20.62-57.36-57.56-57.38H165.83c-37.34,0-74.69-.17-112,.06C23.91,51.49.59,72.83.34,101q-.67,78,0,156.11c.22,25.59,18.19,45.21,43.2,49.5A99.22,99.22,0,0,0,68,307.71c7.84-.6,9.77,2.53,9.36,9.78-.55,9.6-.24,19.24-.08,28.86.06,4.11-1.18,8.8,3.53,11.51,5.28,3.06,8.8-.8,12.38-3.45,17.93-13.42,35.87-26.86,53.51-40.67a26.49,26.49,0,0,1,17.53-6Q220.26,308.13,276.27,307.83Zm-110-39.72c-26.95.34-26.93-40,0-40.05C192.8,228.16,192.63,268.27,166.31,268.11Zm33.88-83.32c-11.42,7-17.11,8.55-19.88,15.29-1.6,3.83-1.41,7.38-4.88,10.18-3.2,2.59-7.2,2.65-8.8,2.67s-7.28.1-11.2-3.9c-3.16-3.25-3.39-7.37-3.66-12.29-.14-2.4-.46-8.32,1.91-13.86,1.89-4.41,5-7.45,21.48-17s21.44-11.2,23.47-17.28c1.36-4.09,1.08-9.34-1.6-13.1-3.84-5.43-11.16-5.6-25.6-5.6-13.25-.05-22.3.05-26.35,6.19a13.42,13.42,0,0,0-2,7.86c-1.86,8.19-8.8,13.77-16,13.6-8.07-.16-12.7-7.32-13.05-7.89a40.8,40.8,0,0,1,2.11-24.48c5.2-12.25,15.14-18,19.73-20.5,10.87-6,20.67-6.09,34.12-6.19,15.8-.11,26.54-.18,37.76,6.84,3.12,1.95,14.34,9.22,19.25,23.82,4.84,14.4,1.83,30.72-6.7,41C216.36,174.81,211,178.13,200.19,184.79Z"/><path d="M511.82,207.19c-.47-31.46-22.28-52.72-53.6-52.8-29.54,0-59.08.27-88.6-.2-8-.12-10.87,1.41-10.69,10.26.64,29.94.39,59.9.21,89.85-.28,43.39-29.24,75-72.23,79.24-19.2,1.88-38.4.69-57.6.88-24.9.23-24.9.05-24.12,25.39.8,25.7,18.05,45.94,43.61,48.7,32.59,3.52,65.39.87,98.09,1.25a29,29,0,0,1,18.51,6.4c18,13.92,36.38,27.39,54.63,41,3.15,2.34,6.4,4.91,10.66,2.93,3.9-1.82,3.9-5.52,3.86-9.19-.05-6.4,0-12.84,0-19.25,0-21.16,0-21.16,21-21.16,34.7,0,55.94-20.9,56.28-55.72.22-23.89,0-47.78,0-71.67C511.89,257.77,512.18,232.45,511.82,207.19Z"/></svg>