<svg id="b3716483-df2c-4c86-933c-e2e3cc04e749" data-name="Capa 1" xmlns="http://www.w3.org/2000/svg" viewBox="0 0 512 512.03"><defs><style>.a7c571b7-15fe-4278-9ace-2077fc1b8047{fill:#010101;}</style></defs><path class="a7c571b7-15fe-4278-9ace-2077fc1b8047" d="M207.32,32a175.33,175.33,0,0,1,124,299.3A175.33,175.33,0,0,1,83.35,83.32,174.2,174.2,0,0,1,207.32,32m0-32h0C92.82,0,0,92.79,0,207.3H0C0,321.8,92.82,414.62,207.32,414.62h0c114.51,0,207.33-92.82,207.33-207.32h0C414.65,92.79,321.83,0,207.32,0Z" transform="translate(0 0.03)"/><path d="M507.31,484.69,364.78,342.16A206.51,206.51,0,0,0,414.65,207.3h0C414.65,92.79,321.83,0,207.32,0h0C92.82,0,0,92.79,0,207.3H0C0,321.8,92.82,414.62,207.32,414.62h0a206.46,206.46,0,0,0,134.83-49.84L484.69,507.31a16,16,0,0,0,22.62-22.62Zm-300-102.07a175.33,175.33,0,0,1-124-299.3,175.33,175.33,0,0,1,248,248A174.2,174.2,0,0,1,207.32,382.62Z" transform="translate(0 0.03)"/></svg>