<svg id="f7de650e-79ac-46dc-8fb7-4d6f7d8af3cc" data-name="Capa 1" xmlns="http://www.w3.org/2000/svg" viewBox="0 0 483.61 512"><path d="M256.45,24a8.49,8.49,0,0,1,3.56.79l.27.13.27.11,189.37,80.33c14.4,6.11,24,19.91,23.88,34.34v.07a437.08,437.08,0,0,1-8.92,83.35,432.45,432.45,0,0,1-31.44,96.34c-16.21,34.77-36.88,65.78-61.43,92.18a328.76,328.76,0,0,1-99.32,72.73,38.12,38.12,0,0,1-32.47,0,329.05,329.05,0,0,1-99.37-72.73c-24.55-26.39-45.25-57.41-61.53-92.21A436.53,436.53,0,0,1,47.62,223a449.34,449.34,0,0,1-9.42-82.88c.65-14.81,10.56-28.75,24.78-34.79L252.44,25l.38-.16.37-.17a8.11,8.11,0,0,1,3.26-.7h0m0-24h0a31.88,31.88,0,0,0-13.37,2.94L53.62,83.26C31.51,92.65,15,114.45,14.2,139.89,15.59,240.55,56.58,423.08,229.9,506a62.12,62.12,0,0,0,53.1,0c173.27-83,214.3-265.49,214.8-366.15.2-25.44-16.39-47.24-38.51-56.63L269.93,2.94A32.38,32.38,0,0,0,256.45,0Z" transform="translate(-14.2 0)"/><path d="M224.18,326l-50.91-50.91a12,12,0,0,1,17-17l33.94,33.94,97.58-97.58a12,12,0,1,1,17,17Z" transform="translate(-14.2 0)"/></svg>