<?xml version="1.0" encoding="utf-8"?>
<!-- Generator: Adobe Illustrator 25.4.1, SVG Export Plug-In . SVG Version: 6.00 Build 0)  -->
<svg version="1.1" id="b5f342eb-4682-4e38-94ba-34b5146a6ff4"
  xmlns="http://www.w3.org/2000/svg"
  xmlns:xlink="http://www.w3.org/1999/xlink" x="0px" y="0px" viewBox="0 0 537 512" style="enable-background:new 0 0 537 512;" xml:space="preserve">
  <path d="M533.4,189.2c-1-1-2.2-1.9-3.4-2.5c-1-0.5-2-0.9-3-1.1c-0.4-0.1-0.7-0.1-1.1-0.2l-163-23.7c-1.1-0.2-2.1-0.4-3.1-0.8
	c-1.5-0.6-2.8-1.4-3.9-2.5s-2.1-2.3-2.8-3.8L280.2,6.9c-0.1-0.3-0.3-0.6-0.4-0.8c0-0.1-0.1-0.2-0.1-0.2c-0.1-0.2-0.2-0.4-0.3-0.5
	c-0.1-0.1-0.1-0.2-0.2-0.3c-0.1-0.1-0.2-0.3-0.3-0.4c-0.1-0.1-0.2-0.2-0.3-0.3c-0.1-0.1-0.2-0.2-0.3-0.4c-0.1-0.1-0.2-0.2-0.3-0.3
	c-0.1-0.1-0.2-0.2-0.3-0.3c-0.1-0.1-0.2-0.2-0.3-0.3c-0.1-0.1-0.2-0.2-0.3-0.3c-0.1-0.1-0.2-0.2-0.4-0.3c-0.1-0.1-0.2-0.2-0.4-0.3
	c-0.1-0.1-0.2-0.2-0.4-0.3c-0.1-0.1-0.2-0.2-0.4-0.2c-0.1-0.1-0.3-0.2-0.4-0.2c-0.1-0.1-0.3-0.1-0.4-0.2c-0.1-0.1-0.3-0.1-0.4-0.2
	c-0.1-0.1-0.3-0.1-0.4-0.2c-0.1-0.1-0.3-0.1-0.4-0.2c-0.1-0.1-0.3-0.1-0.4-0.2c-0.1-0.1-0.3-0.1-0.4-0.1c-0.1,0-0.3-0.1-0.4-0.1
	c-0.1,0-0.3-0.1-0.4-0.1c-0.1,0-0.3-0.1-0.4-0.1c-0.1,0-0.3-0.1-0.4-0.1c-0.2,0-0.3-0.1-0.5-0.1c-0.1,0-0.3,0-0.4,0
	c-0.2,0-0.3,0-0.5,0c-0.1,0-0.3,0-0.4,0c-0.1,0-0.3,0-0.4,0c0,0-0.1,0-0.1,0c0,0-0.1,0-0.1,0c-0.2,0-0.5,0-0.7,0c-0.2,0-0.4,0-0.6,0
	c-0.2,0-0.5,0.1-0.7,0.1c-0.2,0-0.4,0.1-0.6,0.1c-0.2,0.1-0.5,0.1-0.7,0.2c-0.2,0-0.4,0.1-0.5,0.1c-0.2,0.1-0.5,0.2-0.7,0.3
	c-0.2,0.1-0.3,0.1-0.5,0.2c-0.2,0.1-0.5,0.2-0.7,0.4c-0.2,0.1-0.3,0.1-0.5,0.2c-0.2,0.1-0.5,0.3-0.7,0.4c-0.1,0.1-0.3,0.2-0.4,0.3
	c-0.2,0.2-0.5,0.4-0.7,0.6c-0.1,0.1-0.2,0.2-0.3,0.3c-0.3,0.3-0.6,0.6-0.9,0.9c0,0,0,0-0.1,0.1c-0.2,0.2-0.4,0.5-0.6,0.7
	c-0.6,0.8-1.1,1.6-1.5,2.4l-72.9,147.7c-0.3,0.7-0.8,1.4-1.2,2c-0.5,0.6-1,1.2-1.6,1.8c-0.2,0.2-0.4,0.3-0.6,0.5
	c-0.6,0.5-1.2,1-1.9,1.3c-0.5,0.3-0.9,0.5-1.4,0.7c-0.5,0.2-1,0.4-1.5,0.5c-0.5,0.1-1,0.2-1.6,0.3l-163,23.7
	c-2.4,0.4-4.6,1.4-6.4,2.8c-0.3,0.2-0.6,0.5-0.9,0.8c-0.5,0.5-1,1.1-1.5,1.8c-0.4,0.6-0.8,1.3-1.2,2c-0.8,1.8-1.3,3.7-1.2,5.8v0v0v0
	c0,0.8,0.1,1.6,0.3,2.4l0.1,0.4c0.1,0.4,0.2,0.8,0.4,1.2c0.1,0.2,0.2,0.4,0.2,0.6c0.2,0.4,0.4,0.9,0.6,1.3c0.3,0.5,0.6,1.1,1,1.6
	c0.4,0.5,0.9,1,1.4,1.5c0,0,0,0,0,0l117.9,114.9c0.9,0.9,1.7,2,2.4,3.1c0.3,0.6,0.6,1.2,0.8,1.8c0.2,0.6,0.4,1.3,0.5,1.9
	c0.1,0.4,0.1,0.8,0.2,1.2c0,0.4,0.1,0.8,0.1,1.2c0,0.8-0.1,1.6-0.2,2.4L97.8,496.4c-1.2,7.1,3.5,13.8,10.6,15.1c0,0,0,0,0,0
	c0.4,0.1,0.7,0.1,1.1,0.1c0.1,0,0.2,0,0.4,0c0.2,0,0.5,0,0.7,0c0,0,0,0,0,0c0,0,0.1,0,0.1,0c0.4,0,0.8,0,1.2-0.1c0.1,0,0.2,0,0.4,0
	c0.5-0.1,0.9-0.1,1.4-0.3c0,0,0.1,0,0.1,0c0.4-0.1,0.8-0.2,1.3-0.4c0.1,0,0.2-0.1,0.3-0.1c0.4-0.2,0.9-0.4,1.3-0.6c0,0,0,0,0,0
	l145.8-76.6c1.9-1,4-1.5,6.1-1.5s4.2,0.5,6.1,1.5l145.8,76.6c0,0,0,0,0,0c0.4,0.2,0.9,0.4,1.4,0.6c0.1,0.1,0.3,0.1,0.4,0.2
	c0.3,0.1,0.6,0.2,1,0.3c0.2,0,0.3,0.1,0.5,0.1c0.3,0.1,0.6,0.1,0.9,0.2c0.2,0,0.3,0.1,0.5,0.1c0.4,0,0.7,0.1,1.1,0.1
	c0.1,0,0.2,0,0.3,0c0,0,0.1,0,0.1,0c0.1,0,0.1,0,0.2,0c0.3,0,0.6,0,0.9-0.1c0.1,0,0.2,0,0.3,0c0.4,0,0.7-0.1,1.1-0.2c0,0,0,0,0.1,0
	c0.3-0.1,0.7-0.2,1-0.3c0.1,0,0.2-0.1,0.3-0.1c0.3-0.1,0.6-0.2,0.9-0.3c0,0,0.1,0,0.1-0.1c0.3-0.1,0.7-0.3,1-0.5
	c0.1,0,0.2-0.1,0.2-0.1c0.3-0.1,0.5-0.3,0.8-0.5c0.1,0,0.1-0.1,0.2-0.1c0.3-0.2,0.6-0.4,0.9-0.7c0.1-0.1,0.1-0.1,0.2-0.2
	c0.2-0.2,0.5-0.4,0.7-0.6c0.1-0.1,0.1-0.1,0.2-0.2c0.3-0.3,0.5-0.5,0.8-0.8c0,0,0.1-0.1,0.1-0.1c0.2-0.3,0.4-0.5,0.6-0.8
	c0.1-0.1,0.1-0.2,0.2-0.3c0.2-0.3,0.4-0.7,0.6-1c0.2-0.4,0.4-0.9,0.6-1.4c0.2-0.4,0.3-0.9,0.4-1.4c0-0.2,0.1-0.3,0.1-0.5
	c0.4-1.7,0.4-3.4,0.1-5.1l-27.8-162.3c-0.7-4.2,0.7-8.5,3.7-11.5L533,207.6c1-0.9,1.8-2,2.4-3.1c0.6-1.1,1.1-2.3,1.3-3.5
	c0.2-0.8,0.3-1.6,0.3-2.5C537.1,195.1,535.9,191.8,533.4,189.2z M268.5,55.6l55.8,113.1c6.6,13.3,19.3,22.6,33.9,24.7l125,18.2
	l-90.4,88.1c-10.6,10.4-15.5,25.3-13,39.9l21.3,124.4l-111.7-58.7c-6.4-3.4-13.7-5.2-21-5.2V55.6z"/>
</svg>
