<?xml version="1.0" encoding="utf-8"?>
<!-- Generator: Adobe Illustrator 25.4.1, SVG Export Plug-In . SVG Version: 6.00 Build 0)  -->
<svg version="1.1" id="b8c64928-962c-4a4e-937a-90a0ccfeb499"
	 xmlns="http://www.w3.org/2000/svg" xmlns:xlink="http://www.w3.org/1999/xlink" x="0px" y="0px" viewBox="0 0 537 512"
	 style="enable-background:new 0 0 537 512;" xml:space="preserve">
<path d="M268.5,55.5l55.8,113.1c6.6,13.3,19.3,22.6,33.9,24.7l125,18.2l-90.4,88.1c-10.6,10.4-15.5,25.3-13,39.9l21.3,124.4
	l-111.7-58.7c-6.4-3.4-13.7-5.2-21-5.2s-14.5,1.8-20.9,5.2l-111.7,58.7l21.3-124.4h0c2.5-14.6-2.3-29.5-12.9-39.9l-90.4-88.1
	l124.9-18.1c14.7-2.1,27.4-11.3,33.9-24.6L268.5,55.5 M268.5-0.4c-1.9,0-3.9,0.4-5.7,1.3c-2.6,1.3-4.7,3.4-6,6l-72.9,147.7
	c-1.9,3.8-5.6,6.5-9.8,7.1l-163,23.7c-7.1,1-12,7.7-11,14.8c0.4,2.8,1.8,5.5,3.8,7.5l117.9,114.9c3.1,3,4.5,7.3,3.7,11.5L97.8,496.4
	c-1.2,7.1,3.5,13.8,10.6,15.1c0.7,0.1,1.5,0.2,2.2,0.2c2.1,0,4.2-0.5,6.1-1.5l145.8-76.6c1.9-1,4-1.5,6.1-1.5s4.2,0.5,6.1,1.5
	l145.8,76.6c1.9,1,4,1.5,6.1,1.5c4.7,0,9.2-2.5,11.5-6.9c1.4-2.6,1.8-5.5,1.3-8.3l-27.8-162.3c-0.7-4.2,0.7-8.5,3.7-11.5L533,207.6
	c5.2-5,5.3-13.2,0.3-18.4c-2-2.1-4.7-3.4-7.5-3.8l-163-23.7c-4.2-0.6-7.9-3.3-9.8-7.1L280.2,6.9C277.9,2.3,273.3-0.4,268.5-0.4
	L268.5-0.4z"/>
</svg>
