<svg id="a1ee25a3-4b36-478f-a2e7-5314999a5148" data-name="Capa 1" xmlns="http://www.w3.org/2000/svg" viewBox="0 0 512 512"><path d="M381.5,380.89H360.9a39.45,39.45,0,0,1-39.4-39.4v-109a39.44,39.44,0,0,1,39.4-39.4h20.6a60.07,60.07,0,0,1,60,60v67.8A60.07,60.07,0,0,1,381.5,380.89Zm-20.6-163.8a15.42,15.42,0,0,0-15.4,15.4v109a15.42,15.42,0,0,0,15.4,15.4h20.6a36,36,0,0,0,36-36v-67.8a36,36,0,0,0-36-36Z"/><path d="M151.1,380.89H130.5a60.07,60.07,0,0,1-60-60v-67.8a60.07,60.07,0,0,1,60-60h20.6a39.44,39.44,0,0,1,39.4,39.4v109A39.45,39.45,0,0,1,151.1,380.89Zm-20.6-163.8a36,36,0,0,0-36,36v67.8a36,36,0,0,0,36,36h20.6a15.42,15.42,0,0,0,15.4-15.4v-109a15.42,15.42,0,0,0-15.4-15.4Z"/><path d="M502.45,213.91A250,250,0,0,0,6,256v18a12,12,0,0,0,24,0V256C30,131.38,131.38,30,256,30A225.24,225.24,0,0,1,478.79,217.93,228.19,228.19,0,0,1,482,256V423.5A58.56,58.56,0,0,1,423.5,482H341c.11-.26.2-.53.31-.79s.24-.59.35-.9.2-.58.29-.87.22-.62.31-.93.17-.59.26-.88.18-.64.26-1,.14-.6.21-.91.16-.64.23-1,.11-.64.17-1,.12-.63.16-.95.1-.7.14-1.05.08-.59.11-.88.07-.82.09-1.23c0-.25.05-.49.06-.74,0-.66.05-1.32.05-2V456a39.05,39.05,0,0,0-39-39H235a39.05,39.05,0,0,0-39,39v11a39.05,39.05,0,0,0,39,39H423.5A82.59,82.59,0,0,0,506,423.5V256A251.81,251.81,0,0,0,502.45,213.91ZM235,482a15,15,0,0,1-15-15V456a15,15,0,0,1,15-15h70a15,15,0,0,1,15,15v11a15,15,0,0,1-15,15Z"/></svg>