<svg id="eb0ffd93-fba0-4ef1-9ec6-8c7d5c4d8c6e" data-name="bde69a8d-f542-49b8-8fca-f3b4eae6f318" xmlns="http://www.w3.org/2000/svg" viewBox="0 0 768 448"><defs><style>.f33854de-3b9e-4c21-bc77-42d9e3c478fe{fill:#e7e7e7;}</style></defs><path class="f33854de-3b9e-4c21-bc77-42d9e3c478fe" d="M768,48V400c0,26.5-28.67,48-64,48H64c-35.33,0-64-21.5-64-48V48C0,21.5,28.67,0,64,0H704C739.33,0,768,21.5,768,48Z"/><polygon points="50.55 192.58 65.79 192.58 65.79 150.78 82.26 150.78 82.26 138.7 34 138.7 34 150.78 50.55 150.78 50.55 192.58"/><path d="M103.2,178.26h8.32l9.77,14.28h16.32l-11.64-17a18.39,18.39,0,0,0,7.64-6.47,18.59,18.59,0,0,0,2.92-10.51,19.12,19.12,0,0,0-2.92-10.66,18.62,18.62,0,0,0-8.28-6.89,31.08,31.08,0,0,0-12.74-2.39H88v53.92h15.2Zm15.59-25.48a7.38,7.38,0,0,1,2.35,5.85,7.27,7.27,0,0,1-2.35,5.77c-1.57,1.39-4,2.08-7.12,2.08H103.2V150.7h8.47C114.85,150.7,117.22,151.4,118.79,152.78Z"/><path d="M158.21,182.11h22.85l4.2,10.47h15.86l-23.87-53.89h-15l-23.79,53.85H154Zm4.51-11.24,6.91-17.23,6.92,17.23Z"/><polygon points="220.36 163.86 244.15 192.58 256.69 192.58 256.69 138.7 241.76 138.7 241.76 167.41 217.97 138.7 205.43 138.7 205.43 192.58 220.36 192.58 220.36 163.86"/><path d="M304.26,164.67a25.53,25.53,0,0,0-6-2.77c-2.18-.67-4.36-1.24-6.55-1.73l-6-1.35a15,15,0,0,1-4.39-1.69,3.18,3.18,0,0,1-1.65-2.81,3.92,3.92,0,0,1,.84-2.46,5.77,5.77,0,0,1,2.78-1.73,16.17,16.17,0,0,1,5.08-.66,27.37,27.37,0,0,1,7.31,1,36.12,36.12,0,0,1,7.62,3.12l4.7-11.28a33.12,33.12,0,0,0-9.12-3.5,46.35,46.35,0,0,0-10.43-1.19A32.45,32.45,0,0,0,275.21,140a18.43,18.43,0,0,0-8,6.31,15.26,15.26,0,0,0-2.66,8.78,12.88,12.88,0,0,0,6.08,11.66,26.07,26.07,0,0,0,6,2.81,61.91,61.91,0,0,0,6.54,1.77c2.18.46,4.17.93,6,1.39a15.15,15.15,0,0,1,4.38,1.77,3.31,3.31,0,0,1,1.7,2.92,3.27,3.27,0,0,1-.89,2.28,6.06,6.06,0,0,1-2.81,1.53,18.15,18.15,0,0,1-5.08.58,31.15,31.15,0,0,1-9.43-1.5,35.37,35.37,0,0,1-8.34-3.76l-5,11.24a32.82,32.82,0,0,0,10,4.27,48.9,48.9,0,0,0,12.74,1.66,32.29,32.29,0,0,0,13.28-2.39,18.34,18.34,0,0,0,7.93-6.35,15.28,15.28,0,0,0,2.66-8.66,13.66,13.66,0,0,0-1.66-7A13.36,13.36,0,0,0,304.26,164.67Z"/><polygon points="332.51 174.1 356.3 174.1 356.3 162.33 332.51 162.33 332.51 150.47 359.53 150.47 359.53 138.7 317.27 138.7 317.27 192.58 332.51 192.58 332.51 174.1"/><polygon points="409.95 180.8 381.78 180.8 381.78 170.95 405.72 170.95 405.72 159.55 381.78 159.55 381.78 150.47 408.95 150.47 408.95 138.7 366.69 138.7 366.69 192.58 409.95 192.58 409.95 180.8"/><path d="M433.66,178.26H442l9.75,14.28h16.32l-11.65-17a18.42,18.42,0,0,0,7.65-6.47A18.63,18.63,0,0,0,467,158.63,19.2,19.2,0,0,0,464.08,148a18.62,18.62,0,0,0-8.28-6.89,31.08,31.08,0,0,0-12.74-2.39H418.42v53.85h15.24Zm15.59-25.48a7.42,7.42,0,0,1,2.34,5.85,7.31,7.31,0,0,1-2.34,5.77c-1.57,1.39-3.95,2.08-7.12,2.08h-8.47V150.7h8.47C445.31,150.7,447.68,151.4,449.25,152.78Z"/><polygon points="518.64 180.8 490.47 180.8 490.47 170.95 514.41 170.95 514.41 159.55 490.47 159.55 490.47 150.47 517.64 150.47 517.64 138.7 475.38 138.7 475.38 192.58 518.64 192.58 518.64 180.8"/><polygon points="542.04 163.86 565.83 192.58 578.37 192.58 578.37 138.7 563.44 138.7 563.44 167.41 539.65 138.7 527.11 138.7 527.11 192.58 542.04 192.58 542.04 163.86"/><path d="M639.18,183.54l-9.69-8.77a19.13,19.13,0,0,1-5.74,4.69,14.94,14.94,0,0,1-7,1.62,16.59,16.59,0,0,1-6.08-1.08,13.06,13.06,0,0,1-4.67-3.16,14.63,14.63,0,0,1-3.08-4.89,18.4,18.4,0,0,1,0-12.63,14.59,14.59,0,0,1,3.08-4.88,13.06,13.06,0,0,1,4.73-3.12,16.59,16.59,0,0,1,6.08-1.08,14.94,14.94,0,0,1,7,1.62,19.28,19.28,0,0,1,5.74,4.69l9.69-8.77a25.61,25.61,0,0,0-9.81-7.55A32.6,32.6,0,0,0,616,137.62a33.31,33.31,0,0,0-11.82,2,27.45,27.45,0,0,0-9.39,5.81,26.86,26.86,0,0,0-6.2,8.89,29.65,29.65,0,0,0,0,22.55,26.86,26.86,0,0,0,6.2,8.89,27.33,27.33,0,0,0,9.39,5.82,33.31,33.31,0,0,0,11.82,2,32.08,32.08,0,0,0,13.35-2.66A26.3,26.3,0,0,0,639.18,183.54Z"/><rect x="645.96" y="138.69" width="15.24" height="53.88"/><path d="M685.34,182.11h22.85l4.2,10.47h15.85l-23.86-53.89h-15l-23.79,53.85h15.54Zm4.51-11.24,6.91-17.23,6.92,17.23Z"/><path d="M104.61,264.54c-.51-.21-1-.4-1.57-.59a23,23,0,0,0,8.14-7,19.58,19.58,0,0,0,3.49-11.59,19.31,19.31,0,0,0-8.34-16.25q-8.34-6.2-25.26-6.19H37.16v85.85H83.52q17.3,0,26.31-6.2a19.84,19.84,0,0,0,9-17.35,21.21,21.21,0,0,0-3.73-12.68A23.44,23.44,0,0,0,104.61,264.54Zm-26.73-24.1c4.09,0,7.15.67,9.2,2a6.91,6.91,0,0,1,3.06,6.19,7.06,7.06,0,0,1-3.06,6.26c-2,1.39-5.11,2.08-9.2,2.08H61.2V240.44Zm13.18,48.62c-2.17,1.43-5.33,2.15-9.5,2.15H61.2V273.79H81.56c4.17,0,7.33.72,9.5,2.15a8.25,8.25,0,0,1,0,13.12Z"/><path d="M159.07,222.9l-37.9,85.85h24.77l6.7-16.68H189l6.69,16.68H221L183,222.9Zm.75,51.26,11-27.45,11,27.45Z"/><polygon points="285.75 268.65 247.86 222.9 227.87 222.9 227.87 308.75 251.66 308.75 251.66 263 289.56 308.75 309.55 308.75 309.55 222.9 285.75 222.9 285.75 268.65"/><path d="M391,280.29a30.3,30.3,0,0,1-9.14,7.48,23.8,23.8,0,0,1-11.1,2.58,26.48,26.48,0,0,1-9.69-1.72,20.79,20.79,0,0,1-7.54-5,23.51,23.51,0,0,1-4.9-7.79,29.33,29.33,0,0,1,0-20.11,23.15,23.15,0,0,1,4.9-7.79,20.79,20.79,0,0,1,7.54-5,26.73,26.73,0,0,1,9.69-1.72,23.67,23.67,0,0,1,11.1,2.58,30.42,30.42,0,0,1,9.14,7.48l15.45-14a41,41,0,0,0-15.64-12,51.82,51.82,0,0,0-21.27-4.17,53.27,53.27,0,0,0-18.83,3.25,43.9,43.9,0,0,0-15,9.26,43.15,43.15,0,0,0-9.87,14.17,47.08,47.08,0,0,0,0,35.93,43.1,43.1,0,0,0,9.87,14.16,43.65,43.65,0,0,0,15,9.26,53.05,53.05,0,0,0,18.83,3.25,51.33,51.33,0,0,0,21.27-4.23,41.87,41.87,0,0,0,15.64-12Z"/><path d="M443.35,222.9l-37.9,85.85h24.77l6.7-16.68h36.4L480,308.75h25.27l-38-85.85Zm.75,51.26,11-27.45,11,27.45Z"/><path d="M584.87,271.4a29.68,29.68,0,0,0,4.66-16.74,30.38,30.38,0,0,0-4.66-17,29.64,29.64,0,0,0-13.18-11q-8.54-3.79-20.3-3.8H512.15v85.85h24.28V285.93h13.25l15.57,22.82h26l-18.55-27A29.25,29.25,0,0,0,584.87,271.4Zm-23.61-26.06q3.75,3.32,3.74,9.32t-3.74,9.2q-3.74,3.31-11.34,3.31H536.43V242h13.49Q557.53,242,561.26,245.34Z"/><rect x="602.9" y="222.9" width="24.28" height="85.85"/><path d="M708.74,308.75H734L696,222.9H672.07l-37.9,85.85h24.77l6.7-16.68H702Zm-35.92-34.59,11-27.45,11,27.45Z"/></svg>