<svg id="Capa_1" data-name="Capa 1"
  xmlns="http://www.w3.org/2000/svg" viewBox="0 0 871.41 508.28">
  <path d="M647.4,356.1a52.18,52.18,0,1,0,52.18,52.18A52.24,52.24,0,0,0,647.4,356.1Zm0,72.36a20.18,20.18,0,1,1,20.18-20.18A20.21,20.21,0,0,1,647.4,428.46Z" transform="translate(-4.3 -1.86)"/>
  <path d="M295.32,356.1a52.18,52.18,0,1,0,52.18,52.18A52.24,52.24,0,0,0,295.32,356.1Zm0,72.36a20.18,20.18,0,1,1,20.18-20.18A20.21,20.21,0,0,1,295.32,428.46Z" transform="translate(-4.3 -1.86)"/>
  <path d="M279.6,231a16,16,0,0,0-16-16H28.6a16,16,0,1,0,0,32h235A16,16,0,0,0,279.6,231Z" transform="translate(-4.3 -1.86)"/>
  <path d="M255.3,172.82a16,16,0,0,0,0-32H20.3a16,16,0,0,0,0,32Z" transform="translate(-4.3 -1.86)"/>
  <path d="M316.16,103a16,16,0,0,0,0-32h-235a16,16,0,0,0,0,32Z" transform="translate(-4.3 -1.86)"/>
  <path d="M841.19,335.32V231.6A80.24,80.24,0,0,0,816,173.69l-83.36-79-.43-.39c-17.15-15.11-37.7-23.1-59.43-23.1H571.06V61.06a59.26,59.26,0,0,0-59.2-59.2H36.9a16,16,0,0,0,0,32h475a27.23,27.23,0,0,1,27.2,27.2V371a27.23,27.23,0,0,1-27.2,27.2H396.69a1.1,1.1,0,0,0,0-.18c0-.33-.07-.65-.11-1-.05-.5-.11-1-.17-1.5s-.09-.69-.14-1-.13-.95-.2-1.43-.11-.71-.17-1.06-.15-.93-.23-1.39-.13-.71-.19-1.07-.17-.91-.27-1.36-.14-.71-.22-1.07-.19-.89-.29-1.34-.16-.71-.25-1.07-.21-.88-.32-1.32l-.27-1.06-.36-1.31c-.1-.35-.19-.7-.29-1s-.26-.88-.4-1.32-.2-.68-.31-1-.28-.88-.43-1.31l-.33-1c-.15-.45-.31-.89-.47-1.33s-.22-.64-.34-1-.35-.91-.52-1.37c-.12-.3-.23-.59-.34-.88-.2-.5-.41-1-.61-1.48-.1-.25-.2-.51-.31-.75-.26-.63-.54-1.24-.81-1.86-.05-.12-.1-.23-.16-.35q-.5-1.1-1-2.19c-.08-.17-.17-.34-.26-.51-.26-.55-.53-1.09-.81-1.63l-.4-.77c-.23-.45-.47-.9-.71-1.35l-.47-.85c-.23-.41-.46-.83-.7-1.24s-.34-.58-.51-.87-.46-.8-.7-1.19l-.54-.89-.72-1.14-.57-.88c-.24-.38-.49-.75-.73-1.12l-.6-.88c-.25-.36-.5-.73-.76-1.09l-.61-.86-.78-1.07c-.21-.29-.42-.57-.64-.85s-.54-.71-.81-1.06l-.64-.83-.85-1c-.22-.27-.43-.54-.65-.8l-.89-1-.65-.76c-.31-.36-.62-.71-.94-1.06l-.64-.72-1-1.09-.61-.65c-.38-.4-.78-.8-1.17-1.2l-.49-.49c-.56-.57-1.13-1.12-1.7-1.67l0,0L363.83,333l-.56-.5-1.22-1.08c-.22-.2-.46-.39-.69-.59l-1.12-.94c-.25-.21-.5-.42-.76-.62l-1.09-.88-.8-.63-1.08-.82-.84-.63-1.08-.78c-.28-.21-.57-.41-.86-.61l-1.09-.76-.88-.6-1.11-.73-.9-.57-1.12-.71-.91-.55-1.15-.68-.92-.53-1.17-.66-.92-.5-1.22-.65-.9-.47-1.28-.64-.87-.42c-.46-.23-.93-.44-1.4-.66l-.78-.36c-.57-.26-1.16-.51-1.74-.76l-.46-.2c-.74-.32-1.49-.62-2.24-.92l-.55-.21-1.7-.65-.85-.3-1.44-.51-.94-.31-1.37-.44-1-.31-1.34-.4-1-.29-1.32-.35-1.06-.27-1.32-.33-1.08-.24-1.32-.29-1.09-.23-1.34-.25-1.1-.2-1.34-.22-1.11-.18-1.36-.19-1.11-.14-1.39-.16-1.09-.12-1.45-.13-1.05-.09-1.53-.09-1-.06-1.69-.07-.85,0q-1.26,0-2.55,0c-.85,0-1.7,0-2.54,0l-.85,0-1.69.07-1,.06-1.52.09-1.06.09-1.44.13-1.09.12-1.39.16-1.11.14-1.36.19-1.11.18-1.34.22-1.11.2-1.32.25-1.1.23-1.32.29-1.08.25-1.31.32c-.36.08-.72.17-1.07.27l-1.31.35-1.05.29-1.32.4-1,.31-1.35.44-1,.31-1.41.5-.87.31-1.66.63-.6.23-2.23.91-.53.24-1.67.73-.81.38-1.37.63-.89.44-1.25.63-.93.48-1.2.63-.93.52-1.16.65-.93.53-1.13.68-.93.56-1.1.69-.92.59-1.09.72-.89.6-1.08.75-.88.62-1.06.78-.86.63-1.06.81-.82.65-1.06.85-.79.64-1.09.92-.72.62-1.17,1c-.2.18-.41.35-.61.54l-1.6,1.48-.13.13c-.58.55-1.14,1.1-1.7,1.66l-.53.55c-.38.38-.76.76-1.13,1.15l-.64.68c-.33.35-.66.7-1,1.06s-.45.49-.67.74-.61.68-.91,1l-.68.78-.86,1c-.23.27-.45.54-.67.82s-.56.68-.83,1l-.66.84c-.27.35-.54.69-.8,1l-.65.87-.76,1.05-.63.88-.75,1.08-.6.88c-.25.37-.49.74-.73,1.11l-.58.89-.71,1.14-.54.89c-.24.39-.47.79-.7,1.18l-.52.88-.69,1.23c-.15.29-.32.57-.47.86s-.47.88-.7,1.33l-.42.79c-.27.53-.53,1.06-.79,1.59l-.27.56c-.35.72-.69,1.45-1,2.18l-.18.39c-.27.6-.53,1.21-.79,1.81l-.32.78-.6,1.45-.34.9c-.18.45-.35.9-.52,1.36l-.35,1c-.15.44-.31.88-.46,1.33s-.22.66-.33,1-.29.87-.43,1.31-.21.68-.32,1l-.39,1.32c-.1.34-.19.69-.29,1l-.36,1.31-.27,1.06c-.11.44-.22.88-.32,1.32s-.17.71-.25,1.07-.2.89-.29,1.34-.15.71-.23,1.07-.17.91-.26,1.36-.13.71-.19,1.07-.16.92-.23,1.39-.12.71-.17,1.06-.14,1-.2,1.43-.1.69-.14,1-.12,1-.18,1.5c0,.33-.07.65-.1,1a1.1,1.1,0,0,0,0,.18H172.74a27.23,27.23,0,0,1-27.2-27.2V285.7a16,16,0,0,0-32,0V371a59.27,59.27,0,0,0,59.2,59.2h23.11a101.87,101.87,0,0,0,199,0H547.93a101.87,101.87,0,0,0,199,0h78.31c27.86,0,50.51-21.85,50.51-48.7C875.7,360.05,861.23,341.79,841.19,335.32ZM295.32,478.14a69.94,69.94,0,0,1-69.64-64.6l0-.41c-.05-.77-.09-1.48-.12-2.14,0-.9-.07-1.8-.07-2.71a69.86,69.86,0,0,1,139.72,0c0,.91,0,1.81-.06,2.71,0,.66-.07,1.37-.13,2.14l0,.41A70,70,0,0,1,295.32,478.14Zm352.08,0a69.93,69.93,0,0,1-69.66-64.95s0,0,0-.06c-.05-.77-.09-1.47-.12-2.14,0-.9-.07-1.8-.07-2.71a69.86,69.86,0,0,1,139.72,0c0,.91,0,1.82-.07,2.72,0,.67-.06,1.37-.12,2.13v0A69.94,69.94,0,0,1,647.4,478.14Zm177.79-79.92H748.77a.88.88,0,0,0,0-.16c0-.37-.08-.74-.12-1.11s-.1-.92-.16-1.37-.1-.76-.15-1.13-.12-.89-.19-1.34-.12-.76-.18-1.14l-.21-1.3-.21-1.14c-.08-.43-.17-.87-.25-1.29l-.24-1.13c-.09-.43-.18-.86-.28-1.28s-.17-.75-.26-1.13-.2-.84-.31-1.26-.18-.74-.28-1.11-.23-.84-.34-1.26-.21-.73-.31-1.09-.25-.84-.38-1.26-.21-.72-.33-1.07-.27-.84-.41-1.26-.23-.7-.34-1.05l-.45-1.27c-.12-.34-.24-.68-.37-1s-.32-.87-.49-1.3-.24-.64-.37-1-.37-.92-.57-1.38l-.34-.84c-.24-.57-.49-1.13-.74-1.69-.08-.17-.15-.35-.23-.52-.33-.73-.67-1.45-1-2.17l-.3-.62c-.25-.51-.5-1-.76-1.52-.14-.28-.29-.56-.44-.83-.22-.43-.45-.87-.68-1.29l-.49-.89c-.22-.4-.44-.8-.67-1.2l-.53-.9c-.23-.39-.45-.78-.69-1.16s-.37-.61-.55-.91l-.7-1.12-.59-.91-.72-1.09-.61-.9-.74-1.07-.63-.88-.77-1.05-.64-.87-.8-1-.66-.84c-.27-.35-.55-.69-.83-1s-.44-.55-.67-.82l-.87-1-.67-.78c-.3-.35-.61-.69-.92-1s-.43-.5-.66-.74l-1-1.07-.63-.67c-.38-.4-.77-.79-1.15-1.18l-.51-.51c-.56-.57-1.13-1.12-1.7-1.67l-.07-.06L715.91,333l-.58-.51c-.39-.36-.79-.71-1.19-1.06l-.71-.61-1.11-.93-.76-.63-1.09-.87-.81-.63-1.07-.82-.84-.63-1.08-.78-.86-.62-1.09-.75-.89-.6-1.1-.72-.9-.58-1.12-.7-.91-.56-1.15-.68-.92-.53-1.17-.66-.92-.51-1.21-.63-.91-.48-1.27-.63-.88-.43c-.46-.23-.93-.44-1.39-.65l-.79-.37-1.73-.76-.47-.2c-.74-.32-1.49-.62-2.24-.92l-.55-.21c-.57-.22-1.13-.44-1.71-.65l-.84-.3-1.44-.51-.94-.31-1.37-.44-1-.31-1.34-.4-1-.29-1.32-.35-1.07-.27-1.31-.33-1.08-.24-1.32-.29-1.09-.23-1.34-.25-1.1-.2-1.34-.22-1.11-.18-1.36-.19L660,307.2,658.6,307l-1.09-.12-1.45-.13-1-.09-1.53-.09-1-.06-1.69-.07-.85,0q-1.26,0-2.55,0c-.91,0-1.82,0-2.73,0l-.91,0c-.6,0-1.21,0-1.81.08l-1.08.07c-.54,0-1.08.06-1.62.11l-1.15.1-1.53.15-1.18.13-1.48.18-1.2.17-1.44.22-1.2.2-1.42.26-1.2.23-1.39.29-1.2.26-1.38.32-1.18.29-1.38.37-1.16.31-1.4.42-1.11.33c-.51.15-1,.32-1.51.49l-1,.31c-.8.27-1.59.55-2.39.84l-1.08.42c-.45.17-.89.33-1.33.51l-1.17.47-1.22.51-1.18.52-1.18.52-1.18.55-1.14.55-1.17.58-1.13.58-1.15.61-1.11.6-1.14.64-1.08.62L595,321l-1.07.66c-.37.23-.74.45-1.1.69s-.71.45-1.06.68l-1.08.72-1,.71-1.06.74-1.07.77-1,.73-1.64,1.25-1.2,1-1.11.89-.91.78-1,.87-.91.81-1,.89-.88.83-1,.92c-.29.28-.58.56-.86.85l-1,.95-.84.86-.94,1-.8.87-.94,1-.46.51V103.2H672.81c13.94,0,26.74,5,38.07,14.93L794,196.92a47.43,47.43,0,0,1,15.17,34.68V348.81a16,16,0,0,0,16,16c10.21,0,18.51,7.5,18.51,16.71S835.4,398.22,825.19,398.22Z" transform="translate(-4.3 -1.86)"/>
  <path d="M683.82,141a16,16,0,0,0-11-4.39H618.13a16,16,0,0,0-16,16v98.11a16,16,0,0,0,16,16h138a16,16,0,0,0,16-16V231.6a16,16,0,0,0-5-11.62ZM666.43,168.6l69.77,66.11H634.13V168.6Z" transform="translate(-4.3 -1.86)"/>
</svg>
