<svg id="bd55395c-3e41-4439-b1c6-2f57406f0d66" data-name="Capa 1" xmlns="http://www.w3.org/2000/svg" viewBox="0 0 650 512"><defs><style>.b283006e-a85b-4861-b15a-8e03ab0e4604,.f7139384-0ef8-4a4b-b640-106817c67a88{fill:none;stroke:#000;stroke-miterlimit:10;stroke-width:32px;}.f7139384-0ef8-4a4b-b640-106817c67a88{stroke-linecap:round;}</style></defs><path d="M514.42,26.53A34.62,34.62,0,0,1,549,61.11V440a34.62,34.62,0,0,1-34.58,34.58H-2.42A34.62,34.62,0,0,1-37,440V61.11A34.62,34.62,0,0,1-2.42,26.53H514.42m0-32H-2.42A66.58,66.58,0,0,0-69,61.11V440A66.58,66.58,0,0,0-2.42,506.53H514.42A66.58,66.58,0,0,0,581,440V61.11A66.58,66.58,0,0,0,514.42-5.47Z" transform="translate(69 5.47)"/><rect class="b283006e-a85b-4861-b15a-8e03ab0e4604" x="154.11" y="125.32" width="116.64" height="116.64" rx="58.32"/><path class="f7139384-0ef8-4a4b-b640-106817c67a88" d="M254.81,381.21a71.27,71.27,0,0,0-71.27-71.28H103.33a71.27,71.27,0,0,0-71.27,71.28" transform="translate(69 5.47)"/><line class="f7139384-0ef8-4a4b-b640-106817c67a88" x1="398.94" y1="183" x2="548.94" y2="183"/><line class="f7139384-0ef8-4a4b-b640-106817c67a88" x1="398.94" y1="256" x2="548.94" y2="256"/><line class="f7139384-0ef8-4a4b-b640-106817c67a88" x1="398.94" y1="329" x2="548.94" y2="329"/></svg>