<svg id="Capa_1" data-name="Capa 1" xmlns="http://www.w3.org/2000/svg" viewBox="0 0 812.5 650"><path d="M499.75-106a69.64,69.64,0,0,1,69.56,69.56,69.63,69.63,0,0,1-69.56,69.56,69.63,69.63,0,0,1-69.56-69.56A69.64,69.64,0,0,1,499.75-106m-487.5,0A69.64,69.64,0,0,1,81.81-36.44,69.63,69.63,0,0,1,12.25,33.12,69.63,69.63,0,0,1-57.31-36.44,69.64,69.64,0,0,1,12.25-106M255.87,36.19a97.7,97.7,0,0,1,69.68,29.23,100.91,100.91,0,0,1,.34,141.67A98.7,98.7,0,0,1,157,136.72v-.5a100.11,100.11,0,0,1,28.88-70.87,97.66,97.66,0,0,1,70-29.16M550.4,137.75c41.46,0,75.64,34.38,79.49,78.19H443.7a200.65,200.65,0,0,0,16.69-77.24,70.56,70.56,0,0,1,11.51-.95h78.5m-510.35,0a90.24,90.24,0,0,1,11.18.64A200.38,200.38,0,0,0,68,215.94H-117.89c3.85-43.81,38-78.19,79.46-78.19H40.05m279.3,203.12c81.83,0,148.4,61.57,148.4,137.23,0,.38-1.3,1.9-4.05,1.9H48.3c-2.75,0-4-1.52-4-1.9,0-75.66,66.57-137.23,148.4-137.23h126.7M499.75-138A101.56,101.56,0,0,0,398.19-36.44,101.55,101.55,0,0,0,499.75,65.12,101.56,101.56,0,0,0,601.31-36.44,101.55,101.55,0,0,0,499.75-138Zm-487.5,0A101.56,101.56,0,0,0-89.31-36.44,101.56,101.56,0,0,0,12.25,65.12,101.56,101.56,0,0,0,113.81-36.44,101.55,101.55,0,0,0,12.25-138ZM255.87,4.19C183,4.19,125,63.3,125,136.22c-1.14,72.87,58,132,130.89,132s130.89-59.11,130.89-132-59.08-132-130.89-132ZM550.4,105.75H471.9a106,106,0,0,0-45.53,10.46c.76,6.68,2,13.15,2,20,0,42.79-16.22,81.52-42.1,111.72H639.83c12.39,0,22.42-10.67,22.42-23.74,0-65.38-50-118.45-111.85-118.45Zm-510.35,0H-38.43c-61.75,0-111.82,53.07-111.82,118.45,0,13.07,10,23.74,22.37,23.74H125.39C99.47,217.72,83.22,179,83.22,136.22c0-6.92,1.24-13.5,2-20.2-13.85-7.6-29.08-10.27-45.21-10.27Zm279.3,203.12H192.65c-99.66,0-180.4,75.8-180.4,169.23,0,18.79,16.12,33.9,36.05,33.9H463.7c19.93,0,36.05-15.11,36.05-33.9,0-93.43-80.74-169.23-180.4-169.23Z" transform="translate(150.25 138)"/></svg>