<?xml version="1.0" encoding="utf-8"?>
<!-- Generator: Adobe Illustrator 25.4.1, SVG Export Plug-In . SVG Version: 6.00 Build 0)  -->
<svg version="1.1" id="Capa_1" xmlns="http://www.w3.org/2000/svg" xmlns:xlink="http://www.w3.org/1999/xlink" x="0px" y="0px"
	 viewBox="0 0 512 512" style="enable-background:new 0 0 512 512;" xml:space="preserve">
<path d="M256,32c29.9,0,58,11.6,79.2,32.8C356.4,86,368,114.1,368,144s-11.6,58-32.8,79.2C314,244.4,285.9,256,256,256
	c-61.8,0-112-50.2-112-112c0-29.9,11.7-58,32.8-79.2C198,43.7,226.1,32,256,32 M351.1,352c34.9,0,67.4,13.5,91.7,37.9
	c23.8,24,36.7,55.9,36.3,89.7l0,0.2v0.2H32c0-34.2,13.3-66.3,37.5-90.5C93.7,365.3,125.8,352,160,352H351.1 M256,0
	c-79.5,0-144,64.5-144,144s64.5,144,144,144c79.5,0,144-64.5,144-144S335.5,0,256,0L256,0z M351.1,320H160C71.6,320,0,391.6,0,480
	c0,17.7,14.3,32,31.1,32H480c17.7,0,31.1-14.3,31.1-32C512,391.6,440.4,320,351.1,320L351.1,320z"/>
</svg>
