<svg id="Capa_1" data-name="Capa 1" xmlns="http://www.w3.org/2000/svg" viewBox="0 0 512 512"><path d="M256,32a96,96,0,1,1-96,96,96.11,96.11,0,0,1,96-96m50.7,304h0A141.31,141.31,0,0,1,448,477.3v.1a2.62,2.62,0,0,1-2.64,2.6H66.67a2.54,2.54,0,0,1-1.89-.78A2.58,2.58,0,0,1,64,477.3,141.31,141.31,0,0,1,205.3,336H306.7M256,0A128,128,0,1,0,384,128,128,128,0,0,0,256,0Zm50.7,304H205.3A173.31,173.31,0,0,0,32,477.3,34.67,34.67,0,0,0,66.64,512H445.4A34.6,34.6,0,0,0,480,477.44v-.14A173.31,173.31,0,0,0,306.7,304Z"/></svg>