<?xml version="1.0" encoding="utf-8"?>
<!-- Generator: Adobe Illustrator 25.4.1, SVG Export Plug-In . SVG Version: 6.00 Build 0)  -->
<svg version="1.1" id="Capa_1" xmlns="http://www.w3.org/2000/svg" xmlns:xlink="http://www.w3.org/1999/xlink" x="0px" y="0px"
	 viewBox="0 0 640 512" style="enable-background:new 0 0 640 512;" xml:space="preserve">
<path d="M224,32c52.9,0,96,43.1,96,96s-43.1,96-96,96s-96-43.1-96-96S171.1,32,224,32 M274.7,336c37.7,0,73.2,14.7,99.9,41.4
	c26.7,26.7,41.4,62.2,41.4,99.9c0,1.5-1.2,2.7-2.6,2.7H34.7c-1.5,0-2.7-1.2-2.7-2.7c0-37.7,14.7-73.2,41.4-99.9
	c26.7-26.7,62.2-41.4,99.9-41.4H274.7 M224,0C153.3,0,96,57.3,96,128s57.3,128,128,128s128-57.3,128-128S294.7,0,224,0L224,0z
	 M274.7,304H173.3C77.6,304,0,381.6,0,477.3C0,496.5,15.5,512,34.7,512h378.7c19.1,0,34.6-15.5,34.6-34.7
	C448,381.6,370.4,304,274.7,304L274.7,304z"/>
<path d="M624,209.9h-62v-62c0-8.8-7.2-16-16-16s-16,7.2-16,16v62h-62c-8.8,0-16,7.2-16,16s7.2,16,16,16h62v62c0,8.8,7.2,16,16,16
	s16-7.2,16-16v-62h62c8.8,0,16-7.2,16-16S632.8,209.9,624,209.9z"/>
</svg>
