<svg id="b20fb33b-91ca-44a4-a8fb-6c307a824dc3" data-name="b84e96bf-0787-407e-b965-5dfe47918da3" xmlns="http://www.w3.org/2000/svg" viewBox="0 0 768 448"><defs><style>.e0e14179-a1a6-4726-84ac-113e17f27e67{fill:#0168b7;}.b729695e-8f87-4986-9b61-e61c7877ed37{fill:#fff;}.e340a11a-8fcd-4171-9b38-90c3a64ac298{fill:#fcad37;}</style></defs><path class="e0e14179-a1a6-4726-84ac-113e17f27e67" d="M768,48V400c0,26.5-28.7,48-64,48H64c-35.3,0-64-21.5-64-48V48C0,21.5,28.7,0,64,0H704C739.3,0,768,21.5,768,48Z"/><path class="b729695e-8f87-4986-9b61-e61c7877ed37" d="M566.1,199.3s7.6,37.2,9.3,45H542c3.3-8.9,16-43.5,16-43.5-.2.3,3.3-9.1,5.3-14.9l2.8,13.4ZM248.5,299.2,311.7,144H269.2L229.9,250l-4.3-21.5-14-71.4c-2.3-9.9-9.4-12.7-18.2-13.1H128.7l-.7,3.1a157.86,157.86,0,0,1,42.2,17.1l35.8,135Zm94.4.2L368.1,144H327.9L302.8,299.4Zm139.9-50.8c.2-17.7-10.6-31.2-33.7-42.3-14.1-7.1-22.7-11.9-22.7-19.2.2-6.6,7.3-13.4,23.1-13.4a68.33,68.33,0,0,1,29.9,5.9l3.6,1.7,5.5-33.6a100.68,100.68,0,0,0-36-6.6c-39.7,0-67.6,21.2-67.8,51.4-.3,22.3,20,34.7,35.2,42.2,15.5,7.6,20.8,12.6,20.8,19.3-.2,10.4-12.6,15.2-24.1,15.2-16,0-24.6-2.5-37.7-8.3l-5.3-2.5L368,293.3c9.4,4.3,26.8,8.1,44.8,8.3,42.2.1,69.7-20.8,70-53ZM624,299.4,591.6,144H560.5c-9.6,0-16.9,2.8-21,12.9L479.8,299.4H522s6.9-19.2,8.4-23.3H582c1.2,5.5,4.8,23.3,4.8,23.3Z"/><path class="e340a11a-8fcd-4171-9b38-90c3a64ac298" d="M225.6,228.5l-14-71.4c-2.3-9.9-9.4-12.7-18.2-13.1H128.7l-.7,3.1c14.1,5.7,28.1,11.4,42.2,17.1C188.7,185.6,207.1,207.1,225.6,228.5Z"/></svg>