<svg id="Capa_1" data-name="Capa 1" xmlns="http://www.w3.org/2000/svg" viewBox="0 0 512 512"><path d="M435.31,74.4A251.78,251.78,0,0,0,255.89,0C116,0,2.17,113.83,2.17,253.71A254,254,0,0,0,36,380.57L0,512l134.51-35.31a253.06,253.06,0,0,0,121.26,30.85h.12C395.66,507.54,512,393.71,512,253.83,512,186.06,483.2,122.4,435.31,74.4ZM255.89,464.8a210.48,210.48,0,0,1-107.43-29.37l-7.66-4.57L61,451.77l21.26-77.83-5-8A210.11,210.11,0,0,1,45,253.71C45,137.49,139.66,42.86,256,42.86a209,209,0,0,1,149,61.83c39.77,39.88,64.23,92.8,64.11,149.14C469.14,370.17,372.11,464.8,255.89,464.8ZM371.54,306.86c-6.28-3.2-37.48-18.52-43.31-20.57s-10.06-3.2-14.29,3.2-16.34,20.57-20.11,24.91-7.43,4.8-13.72,1.6c-37.25-18.63-61.71-33.26-86.28-75.43-6.52-11.2,6.51-10.4,18.63-34.63,2-4.23,1-7.88-.57-11.08s-14.29-34.4-19.55-47.09c-5.14-12.34-10.4-10.63-14.28-10.86-3.66-.22-7.89-.22-12.12-.22A23.49,23.49,0,0,0,149,144.57c-5.83,6.4-22.17,21.72-22.17,52.92s22.74,61.37,25.83,65.6S197.37,331.31,261,358.86c40.23,17.37,56,18.85,76.11,15.88,12.23-1.83,37.49-15.31,42.75-30.17s5.25-27.54,3.65-30.17C382.06,311.54,377.83,309.94,371.54,306.86Z"/></svg>