<?xml version="1.0" encoding="utf-8"?>
<!-- Generator: Adobe Illustrator 27.9.0, SVG Export Plug-In . SVG Version: 6.00 Build 0)  -->
<svg version="1.1" id="Capa_1" xmlns="http://www.w3.org/2000/svg" xmlns:xlink="http://www.w3.org/1999/xlink" x="0px" y="0px"
	 viewBox="0 0 950 478" style="enable-background:new 0 0 950 478;" xml:space="preserve">
<g>
	<path d="M56.5,88h64.3L170,390h-47.5l-8.6-60v0.9H60L51.3,390h-44L56.5,88z M108.3,289.9L87.1,140.6h-0.9L65.6,289.9H108.3z"/>
	<path d="M192.8,88h47.5v258.9h78.1V390H192.8V88z"/>
	<path d="M341.3,88h129.4v43.1h-82V211h65.1v43.1h-65.1v92.8h82V390H341.3V88z"/>
	<path d="M489.2,347.7l88-216.6h-83.7V88h134.6v42.3l-88,216.6h88V390H489.2V347.7z"/>
	<path d="M647.6,347.7l88-216.6h-83.7V88h134.6v42.3l-88,216.6h88V390H647.6V347.7z"/>
	<path d="M813.2,88h129.4v43.1h-82V211h65.1v43.1h-65.1v92.8h82V390H813.2V88z"/>
</g>
</svg>
